<svg id="svg" version="1.1" xmlns="http://www.w3.org/2000/svg" xmlns:xlink="http://www.w3.org/1999/xlink" width="400" height="400.2131060202451" viewBox="0, 0, 400,400.2131060202451"><g id="svgg"><path id="path0" d="M0.000 200.107 L 0.000 400.213 200.000 400.213 L 400.000 400.213 400.000 200.107 L 400.000 0.000 200.000 0.000 L 0.000 0.000 0.000 200.107 M214.385 32.656 C 215.218 33.072,215.885 33.241,216.693 33.242 C 217.486 33.244,218.269 33.437,219.286 33.884 C 220.288 34.324,221.086 34.523,221.843 34.523 C 222.601 34.523,223.399 34.723,224.401 35.162 C 225.202 35.514,226.108 35.802,226.415 35.802 C 226.721 35.802,227.440 36.039,228.013 36.329 C 228.585 36.619,229.469 36.920,229.977 36.998 C 231.133 37.175,231.818 37.518,232.499 38.259 C 232.792 38.579,234.159 39.392,235.537 40.068 C 236.915 40.743,238.413 41.631,238.866 42.039 C 239.693 42.787,240.443 43.109,241.936 43.360 C 242.538 43.461,243.115 43.847,244.206 44.875 C 245.010 45.634,246.247 46.564,246.954 46.942 C 248.616 47.830,253.626 52.551,254.229 53.797 C 256.028 57.513,253.401 62.264,249.547 62.264 C 247.767 62.264,247.311 61.986,244.433 59.150 C 242.643 57.386,241.384 56.332,240.597 55.938 C 239.952 55.615,239.109 55.076,238.724 54.740 C 238.339 54.403,237.526 53.876,236.918 53.568 C 236.309 53.259,235.378 52.646,234.848 52.205 C 234.318 51.764,233.398 51.161,232.805 50.865 C 232.212 50.569,231.601 50.176,231.449 49.993 C 230.959 49.402,229.708 48.742,228.733 48.560 C 228.211 48.463,226.657 47.854,225.280 47.207 C 223.903 46.560,222.542 46.030,222.257 46.029 C 221.971 46.028,221.209 45.780,220.565 45.478 C 219.849 45.144,218.770 44.866,217.794 44.767 C 216.886 44.674,215.816 44.409,215.316 44.153 C 214.831 43.906,213.777 43.636,212.973 43.554 C 212.122 43.467,211.019 43.173,210.337 42.853 L 209.164 42.302 201.385 42.302 L 193.607 42.302 192.648 42.817 C 191.896 43.221,191.195 43.369,189.407 43.501 C 187.720 43.625,186.886 43.792,186.210 44.138 C 185.655 44.423,184.668 44.666,183.697 44.757 C 182.380 44.880,181.702 45.101,179.843 46.009 C 178.602 46.616,177.211 47.167,176.753 47.234 C 175.580 47.406,172.699 48.831,171.504 49.830 C 170.752 50.457,170.111 50.765,168.968 51.045 C 167.577 51.386,167.301 51.550,165.925 52.853 C 165.092 53.642,163.884 54.551,163.239 54.874 C 162.417 55.286,161.080 56.432,158.764 58.710 L 155.461 61.959 154.076 62.194 C 149.953 62.893,146.830 60.692,146.830 57.088 C 146.830 56.333,146.971 55.534,147.176 55.131 C 147.778 53.945,155.732 46.325,156.998 45.721 C 157.609 45.430,158.472 44.865,158.916 44.467 C 159.360 44.068,160.223 43.490,160.834 43.182 C 161.445 42.874,162.288 42.321,162.707 41.953 C 163.673 41.105,171.594 37.192,172.701 37.016 C 173.158 36.943,174.647 36.353,176.008 35.703 C 178.049 34.731,178.683 34.523,179.617 34.523 C 180.409 34.523,181.186 34.331,182.206 33.884 C 183.202 33.447,184.007 33.245,184.752 33.245 C 185.352 33.245,186.199 33.088,186.634 32.897 C 188.799 31.948,188.343 31.975,201.066 32.025 L 213.213 32.072 214.385 32.656 M211.364 56.293 C 211.912 56.529,213.127 56.845,214.065 56.996 C 215.657 57.250,216.811 57.593,219.712 58.671 C 221.922 59.493,227.829 62.509,228.726 63.274 C 229.218 63.694,230.101 64.275,230.687 64.565 C 231.858 65.144,237.216 70.213,237.758 71.255 C 239.542 74.683,236.845 78.423,232.587 78.423 C 229.760 78.423,229.574 78.339,227.171 75.986 C 225.913 74.753,224.662 73.750,223.868 73.336 C 223.165 72.970,222.254 72.386,221.843 72.038 C 221.433 71.690,219.323 70.523,217.155 69.446 L 213.213 67.487 210.975 67.330 C 209.306 67.213,208.400 67.032,207.410 66.618 C 205.265 65.721,197.649 65.773,194.992 66.702 C 193.603 67.188,192.804 67.336,191.563 67.339 C 190.056 67.341,189.797 67.415,187.749 68.416 C 186.540 69.007,185.062 69.596,184.465 69.724 C 183.016 70.035,180.572 71.213,179.531 72.103 C 179.068 72.499,178.163 73.089,177.519 73.415 C 176.827 73.765,175.510 74.820,174.295 75.998 C 171.865 78.352,171.690 78.432,168.958 78.442 C 165.403 78.454,164.517 77.506,164.519 73.690 C 164.521 70.107,165.851 67.945,169.222 66.044 C 169.931 65.644,170.961 64.955,171.510 64.513 C 172.060 64.070,172.941 63.502,173.468 63.251 C 173.996 63.000,174.789 62.473,175.231 62.081 C 176.195 61.225,181.701 58.498,183.079 58.194 C 183.618 58.075,184.500 57.788,185.040 57.557 C 185.581 57.325,186.626 57.069,187.364 56.988 C 188.102 56.907,189.185 56.648,189.771 56.413 C 191.447 55.740,191.762 55.723,201.322 55.795 C 209.839 55.859,210.426 55.888,211.364 56.293 M208.742 78.793 C 209.214 79.054,210.077 79.360,210.660 79.472 C 212.167 79.760,214.763 81.017,215.882 81.999 C 216.406 82.459,217.275 83.029,217.813 83.265 C 219.627 84.064,221.389 85.991,221.653 87.465 C 222.688 93.241,217.498 97.056,213.356 93.564 C 212.808 93.102,211.906 92.523,211.351 92.278 C 210.796 92.032,209.908 91.456,209.378 90.997 C 208.504 90.241,207.345 89.725,206.500 89.717 C 206.324 89.715,205.653 89.459,205.008 89.148 C 203.912 88.619,203.636 88.582,200.746 88.567 L 197.656 88.552 194.699 90.017 C 192.431 91.141,191.358 91.822,190.092 92.939 C 188.092 94.704,187.780 94.832,185.488 94.832 C 181.631 94.832,179.197 92.158,179.861 88.652 C 180.436 85.612,187.625 79.878,191.329 79.505 C 192.232 79.414,193.306 79.165,193.715 78.952 C 194.994 78.287,195.578 78.238,201.811 78.278 C 207.658 78.316,207.917 78.335,208.742 78.793 M213.703 107.022 C 213.894 107.213,213.958 109.553,213.958 116.236 L 213.958 125.195 210.498 128.660 L 207.037 132.126 206.023 132.126 L 205.008 132.126 205.008 134.257 L 205.008 136.388 214.065 136.388 L 223.122 136.388 223.122 141.183 L 223.122 145.978 200.639 145.978 L 178.157 145.978 178.157 141.183 L 178.157 136.388 186.255 136.388 L 194.353 136.388 194.353 134.257 L 194.353 132.126 193.556 132.126 C 192.811 132.126,192.535 131.902,189.294 128.665 L 185.828 125.205 185.828 116.241 C 185.828 109.554,185.893 107.213,186.084 107.022 C 186.454 106.652,213.333 106.652,213.703 107.022 M251.678 146.191 C 252.217 146.465,252.934 146.617,253.697 146.617 C 254.749 146.617,255.262 146.807,258.340 148.340 L 261.801 150.063 264.428 152.656 C 267.410 155.597,269.573 159.200,269.858 161.698 C 269.928 162.315,270.134 163.032,270.315 163.290 C 270.521 163.584,270.647 164.242,270.652 165.045 C 270.656 165.865,270.808 166.637,271.071 167.182 C 271.334 167.726,271.485 168.498,271.490 169.319 C 271.494 170.043,271.624 170.786,271.787 171.023 C 271.947 171.255,272.125 172.127,272.183 172.963 C 272.246 173.873,272.429 174.682,272.639 174.981 C 272.867 175.307,272.991 175.929,272.996 176.766 C 273.001 177.586,273.152 178.358,273.415 178.903 C 273.679 179.448,273.829 180.219,273.834 181.046 C 273.838 181.841,273.961 182.496,274.154 182.751 C 274.377 183.046,274.469 183.749,274.474 185.201 C 274.484 188.238,274.963 189.096,277.309 190.277 C 278.273 190.762,279.257 191.159,279.494 191.158 C 279.914 191.156,280.681 191.592,281.269 192.167 C 281.428 192.322,281.907 192.628,282.334 192.846 C 283.215 193.297,287.906 198.005,287.906 198.438 C 287.907 198.594,288.156 199.009,288.461 199.361 C 289.305 200.334,290.889 203.627,290.894 204.418 C 290.897 204.801,291.089 205.533,291.321 206.044 C 291.619 206.702,291.742 207.434,291.742 208.556 C 291.742 209.719,291.855 210.361,292.168 210.975 C 292.831 212.274,292.827 247.203,292.164 248.665 C 291.867 249.320,291.742 250.055,291.742 251.156 C 291.742 252.522,291.649 252.900,290.997 254.169 C 290.588 254.968,290.252 255.793,290.251 256.004 C 290.250 256.525,289.751 257.453,289.207 257.945 C 288.960 258.168,288.759 258.472,288.759 258.621 C 288.759 258.770,288.429 259.323,288.027 259.850 C 287.624 260.377,287.155 261.080,286.983 261.411 C 286.629 262.097,284.476 264.169,283.529 264.736 C 282.052 265.620,280.674 266.546,280.035 267.084 C 279.545 267.497,279.111 267.661,278.513 267.661 C 276.835 267.661,276.825 267.702,276.825 274.345 C 276.825 279.854,276.801 280.207,276.399 280.719 C 276.158 281.024,275.972 281.583,275.972 282.000 C 275.972 282.407,275.828 282.859,275.653 283.005 C 275.477 283.151,275.333 283.584,275.333 283.967 C 275.333 284.350,275.143 285.081,274.911 285.592 C 274.680 286.103,274.488 286.715,274.485 286.952 C 274.483 287.189,274.207 287.716,273.872 288.124 C 273.538 288.532,273.115 289.153,272.933 289.505 C 272.573 290.202,269.330 293.447,268.994 293.447 C 268.880 293.447,268.366 293.782,267.851 294.191 C 267.336 294.600,266.723 294.938,266.489 294.941 C 266.255 294.945,265.645 295.138,265.134 295.370 C 264.303 295.747,263.733 295.791,259.750 295.791 L 255.295 295.791 252.581 294.428 C 249.808 293.035,247.454 291.032,246.292 289.075 C 246.085 288.725,245.578 287.912,245.166 287.267 C 244.754 286.622,244.368 285.855,244.307 285.562 C 244.247 285.269,244.011 284.548,243.782 283.960 C 243.405 282.987,243.367 282.327,243.367 276.703 C 243.367 272.176,243.299 270.448,243.111 270.261 C 242.914 270.064,234.209 270.005,205.232 270.004 C 181.753 270.003,167.130 269.925,166.336 269.795 C 165.505 269.658,164.992 269.659,164.855 269.796 C 164.740 269.911,164.479 270.005,164.275 270.005 C 163.658 270.005,163.644 270.179,163.660 277.477 L 163.675 284.528 162.348 287.230 C 160.872 290.233,159.536 291.878,157.899 292.708 C 157.364 292.979,156.794 293.360,156.632 293.555 C 156.470 293.750,155.661 294.247,154.834 294.659 C 154.007 295.072,153.060 295.663,152.730 295.973 L 152.131 296.537 147.071 296.601 L 142.011 296.665 140.958 295.905 C 139.015 294.503,138.417 294.106,137.560 293.647 C 136.410 293.032,133.901 290.558,133.359 289.505 C 133.118 289.036,132.646 288.337,132.310 287.952 L 131.700 287.252 131.700 278.854 L 131.700 270.455 131.195 269.869 C 130.754 269.356,130.510 269.274,129.224 269.204 C 128.417 269.161,127.469 269.001,127.118 268.848 C 126.173 268.438,124.452 267.864,123.601 267.676 C 122.749 267.487,120.938 266.552,120.302 265.972 C 120.066 265.756,119.584 265.433,119.233 265.254 C 118.481 264.871,114.438 260.806,114.438 260.433 C 114.438 260.292,114.161 259.823,113.823 259.391 C 113.022 258.365,111.531 255.400,111.338 254.449 C 111.255 254.038,111.055 253.514,110.894 253.282 C 110.728 253.043,110.599 252.308,110.595 251.578 C 110.590 250.757,110.439 249.985,110.176 249.441 C 109.778 248.616,109.764 247.914,109.764 228.237 C 109.764 208.559,109.778 207.857,110.176 207.032 C 110.402 206.564,110.591 205.819,110.595 205.378 C 110.603 204.513,113.029 199.379,113.688 198.831 C 113.883 198.669,114.237 198.147,114.475 197.670 C 115.060 196.495,118.157 193.370,119.339 192.761 C 119.867 192.490,120.466 192.082,120.671 191.855 C 121.102 191.379,122.683 190.628,123.921 190.313 C 125.706 189.858,126.158 189.396,126.166 188.016 C 126.170 187.251,126.329 186.466,126.585 185.935 C 126.848 185.391,126.999 184.618,127.004 183.798 C 127.009 182.962,127.133 182.339,127.361 182.014 C 127.571 181.715,127.754 180.905,127.817 179.995 C 127.875 179.160,128.053 178.287,128.213 178.056 C 128.376 177.819,128.506 177.075,128.510 176.351 C 128.515 175.531,128.666 174.759,128.929 174.214 C 129.192 173.670,129.344 172.898,129.348 172.077 C 129.353 171.241,129.477 170.618,129.705 170.293 C 129.915 169.994,130.098 169.184,130.161 168.274 C 130.219 167.439,130.397 166.566,130.557 166.335 C 130.721 166.098,130.850 165.354,130.854 164.630 C 130.859 163.810,131.010 163.038,131.273 162.493 C 131.500 162.025,131.688 161.484,131.692 161.291 C 131.696 161.099,131.889 160.524,132.121 160.013 C 132.353 159.502,132.545 158.871,132.547 158.612 C 132.550 158.352,132.826 157.824,133.162 157.439 C 133.497 157.054,133.941 156.408,134.149 156.003 C 134.643 155.038,139.768 149.917,140.445 149.712 C 140.734 149.624,141.209 149.338,141.502 149.077 C 142.296 148.368,143.903 147.546,144.835 147.372 C 145.288 147.287,145.790 147.109,145.951 146.976 C 146.112 146.843,146.783 146.675,147.442 146.602 C 148.102 146.530,148.809 146.397,149.014 146.308 C 149.282 146.191,149.387 146.242,149.387 146.488 C 149.387 146.801,153.655 146.830,200.000 146.830 L 250.613 146.830 250.613 146.297 C 250.613 145.655,250.626 145.654,251.678 146.191 M152.264 157.923 C 151.771 158.157,150.937 158.329,150.286 158.332 C 148.049 158.343,143.707 161.753,143.323 163.799 C 143.239 164.245,143.035 164.872,142.869 165.192 C 142.704 165.513,142.568 166.311,142.568 166.966 C 142.568 167.737,142.417 168.453,142.142 168.993 C 141.866 169.534,141.716 170.249,141.716 171.020 C 141.716 171.675,141.573 172.487,141.399 172.823 C 141.224 173.160,141.046 174.045,141.003 174.789 C 140.959 175.533,140.766 176.447,140.574 176.819 C 140.372 177.210,140.224 177.999,140.224 178.687 C 140.224 179.458,140.073 180.173,139.798 180.714 C 139.522 181.254,139.371 181.970,139.371 182.741 C 139.371 183.396,139.227 184.211,139.050 184.553 C 138.873 184.894,138.693 185.729,138.649 186.407 C 138.605 187.085,138.495 187.967,138.404 188.366 L 138.239 189.093 139.582 188.952 C 140.321 188.875,168.236 188.812,201.614 188.812 C 256.502 188.812,262.335 188.780,262.638 188.477 C 263.111 188.004,263.064 186.415,262.547 185.402 C 262.271 184.862,262.120 184.146,262.120 183.376 C 262.120 182.688,261.973 181.899,261.770 181.508 C 261.578 181.135,261.385 180.222,261.341 179.477 C 261.298 178.733,261.120 177.849,260.945 177.512 C 260.771 177.175,260.629 176.363,260.629 175.708 C 260.629 174.937,260.478 174.222,260.202 173.681 C 259.927 173.141,259.776 172.425,259.776 171.655 C 259.776 170.967,259.628 170.178,259.426 169.787 C 259.234 169.414,259.041 168.501,258.997 167.757 C 258.954 167.012,258.776 166.128,258.601 165.791 C 258.427 165.454,258.284 165.006,258.284 164.795 C 258.283 162.151,253.838 158.550,250.260 158.294 C 249.360 158.229,248.544 158.044,248.247 157.835 C 247.403 157.244,223.982 157.310,222.666 157.907 C 221.212 158.567,181.132 158.567,179.678 157.907 C 178.270 157.268,153.618 157.282,152.264 157.923 M54.946 177.499 C 56.796 178.443,57.996 180.234,58.000 182.062 C 58.006 183.992,57.771 184.387,54.855 187.357 C 53.082 189.163,52.054 190.391,51.760 191.055 C 51.518 191.602,50.999 192.406,50.605 192.841 C 50.211 193.277,49.629 194.155,49.311 194.792 C 48.993 195.430,48.429 196.309,48.057 196.747 C 47.685 197.185,47.108 198.048,46.774 198.665 C 46.441 199.282,45.803 200.223,45.356 200.757 C 44.774 201.452,44.482 202.055,44.324 202.888 C 44.203 203.526,43.628 205.008,43.047 206.180 C 42.466 207.352,41.898 208.791,41.785 209.377 C 41.671 209.963,41.374 210.861,41.124 211.373 C 40.867 211.898,40.598 213.012,40.505 213.930 C 40.411 214.859,40.151 215.929,39.898 216.425 C 39.654 216.902,39.387 217.909,39.305 218.662 C 39.222 219.416,38.904 220.655,38.597 221.417 L 38.039 222.802 38.039 230.474 L 38.039 238.146 38.555 239.105 C 38.959 239.856,39.107 240.557,39.239 242.344 C 39.367 244.092,39.527 244.864,39.920 245.647 C 40.255 246.316,40.471 247.187,40.541 248.162 C 40.631 249.400,40.837 250.038,41.749 251.910 C 42.355 253.151,42.907 254.542,42.978 255.000 C 43.154 256.150,44.594 259.088,45.502 260.149 C 46.271 261.047,46.706 262.030,46.971 263.464 C 47.082 264.066,47.494 264.670,48.572 265.808 C 49.371 266.652,50.289 267.869,50.612 268.514 C 51.024 269.336,52.169 270.671,54.449 272.989 C 58.076 276.674,58.062 276.648,58.016 279.551 C 57.956 283.351,54.377 285.979,51.006 284.697 C 49.987 284.310,42.251 276.269,41.529 274.847 C 41.185 274.170,40.583 273.259,40.192 272.823 C 39.800 272.387,39.235 271.545,38.936 270.951 C 38.637 270.358,38.052 269.465,37.635 268.966 C 36.678 267.821,33.026 260.417,32.787 259.137 C 32.688 258.609,32.080 257.092,31.434 255.764 C 30.446 253.732,30.261 253.165,30.261 252.177 C 30.261 251.339,30.078 250.587,29.622 249.547 C 29.175 248.530,28.982 247.748,28.980 246.954 C 28.979 246.146,28.810 245.479,28.394 244.646 L 27.810 243.474 27.810 231.007 L 27.810 218.540 28.394 217.368 C 28.810 216.534,28.979 215.868,28.980 215.060 C 28.982 214.266,29.175 213.484,29.622 212.467 C 30.060 211.468,30.261 210.666,30.261 209.915 C 30.261 209.175,30.468 208.334,30.900 207.318 C 31.252 206.492,31.540 205.582,31.540 205.297 C 31.540 205.011,31.721 204.422,31.942 203.987 C 32.324 203.237,32.656 202.191,32.916 200.917 C 32.981 200.601,33.427 199.888,33.909 199.332 C 34.390 198.776,35.262 197.327,35.846 196.113 C 36.431 194.898,37.274 193.482,37.721 192.966 C 38.537 192.023,38.846 191.315,39.100 189.808 C 39.203 189.195,39.601 188.601,40.715 187.399 C 41.529 186.522,42.433 185.300,42.725 184.683 C 43.314 183.437,48.424 178.009,49.547 177.435 C 50.533 176.931,53.912 176.972,54.946 177.499 M349.025 177.394 C 350.295 178.064,357.968 186.089,358.516 187.321 C 358.803 187.965,359.295 188.731,359.609 189.024 C 359.923 189.316,360.509 190.179,360.911 190.942 C 361.313 191.704,361.920 192.625,362.260 192.988 C 363.066 193.846,367.182 202.090,367.182 202.846 C 367.182 203.166,367.757 204.618,368.460 206.074 C 369.561 208.352,369.739 208.888,369.739 209.927 C 369.739 210.767,369.908 211.517,370.295 212.387 C 370.607 213.089,370.895 214.200,370.951 214.917 C 371.007 215.647,371.295 216.745,371.620 217.475 L 372.190 218.753 372.190 231.007 L 372.190 243.261 371.620 244.539 C 371.295 245.268,371.007 246.367,370.951 247.096 C 370.895 247.813,370.607 248.925,370.295 249.627 C 369.935 250.436,369.737 251.265,369.734 251.971 C 369.731 252.661,369.527 253.534,369.181 254.342 C 368.879 255.045,368.550 256.085,368.450 256.652 C 368.349 257.219,368.076 258.006,367.843 258.401 C 367.610 258.796,367.320 259.657,367.199 260.314 C 366.976 261.518,366.550 262.303,365.702 263.069 C 365.448 263.298,364.722 264.545,364.088 265.840 C 363.454 267.135,362.555 268.652,362.089 269.213 C 361.477 269.950,361.173 270.569,360.991 271.450 C 360.667 273.027,360.527 273.273,359.084 274.800 C 358.420 275.503,357.530 276.702,357.108 277.464 C 356.238 279.032,351.096 284.315,350.066 284.699 C 346.365 286.079,341.822 283.372,341.822 279.787 C 341.822 278.141,342.240 277.470,345.001 274.676 C 346.809 272.848,347.737 271.729,348.121 270.919 C 348.421 270.285,348.984 269.412,349.372 268.980 C 349.760 268.548,350.343 267.666,350.666 267.022 C 350.989 266.377,351.574 265.494,351.965 265.058 C 352.356 264.623,352.929 263.760,353.238 263.140 C 353.547 262.521,354.122 261.678,354.515 261.268 C 355.016 260.745,355.334 260.116,355.577 259.165 C 355.768 258.418,356.357 256.883,356.884 255.755 C 357.412 254.626,357.983 253.175,358.153 252.531 C 358.323 251.886,358.640 250.975,358.857 250.506 C 359.075 250.037,359.315 248.983,359.392 248.164 C 359.469 247.344,359.759 246.145,360.037 245.500 C 360.314 244.854,360.594 243.743,360.658 243.031 C 360.722 242.318,361.016 241.215,361.312 240.580 L 361.850 239.425 361.852 231.706 L 361.854 223.987 361.298 222.755 C 360.873 221.814,360.719 221.071,360.646 219.606 C 360.579 218.243,360.407 217.348,360.055 216.516 C 359.782 215.871,359.495 214.672,359.416 213.852 C 359.305 212.684,359.049 211.897,358.238 210.222 C 357.668 209.046,357.043 207.472,356.849 206.723 C 356.394 204.967,355.482 203.174,354.423 201.950 C 353.582 200.979,353.270 200.273,353.019 198.777 C 352.920 198.186,352.507 197.573,351.412 196.392 C 350.601 195.518,349.653 194.246,349.305 193.565 C 348.851 192.676,347.774 191.423,345.479 189.110 C 341.964 185.567,341.824 185.328,341.824 182.845 C 341.824 178.769,345.851 175.721,349.025 177.394 M70.527 193.637 C 72.568 194.045,74.176 196.453,74.196 199.132 C 74.216 201.863,74.043 202.251,71.826 204.456 C 70.583 205.691,69.651 206.845,69.158 207.759 C 68.741 208.531,68.120 209.499,67.778 209.909 C 67.206 210.595,63.884 217.058,63.341 218.540 C 63.212 218.892,63.065 220.043,63.013 221.097 C 62.943 222.534,62.779 223.349,62.360 224.343 C 61.459 226.482,61.508 234.097,62.440 236.761 C 62.926 238.150,63.074 238.949,63.077 240.189 C 63.079 241.697,63.153 241.956,64.154 244.004 C 64.745 245.213,65.333 246.691,65.460 247.288 C 65.735 248.583,67.072 251.327,67.913 252.321 C 68.243 252.712,68.849 253.638,69.259 254.378 C 69.690 255.156,70.789 256.519,71.860 257.605 C 74.064 259.839,74.198 260.132,74.208 262.770 C 74.222 266.292,73.441 267.087,69.857 267.200 C 65.943 267.324,63.491 265.840,61.509 262.149 C 61.173 261.523,60.429 260.392,59.857 259.636 C 59.285 258.880,58.817 258.129,58.817 257.967 C 58.817 257.804,58.430 257.224,57.957 256.678 C 56.942 255.504,54.256 250.189,53.945 248.736 C 53.825 248.178,53.535 247.273,53.300 246.726 C 53.066 246.178,52.806 245.127,52.724 244.389 C 52.641 243.651,52.339 242.424,52.052 241.662 L 51.531 240.277 51.551 230.956 C 51.570 222.090,51.593 221.581,52.009 220.514 C 52.249 219.897,52.574 218.625,52.731 217.688 C 52.887 216.750,53.205 215.456,53.436 214.811 C 53.668 214.166,54.020 213.129,54.220 212.506 C 54.800 210.695,58.093 204.143,58.972 203.050 C 59.414 202.501,60.095 201.485,60.485 200.793 C 61.444 199.091,66.307 194.229,67.463 193.817 C 68.381 193.490,69.473 193.426,70.527 193.637 M333.468 195.062 C 334.683 195.393,337.466 198.147,338.434 199.976 C 338.813 200.693,339.442 201.655,339.832 202.115 C 340.222 202.575,340.750 203.390,341.005 203.926 C 341.260 204.463,341.801 205.277,342.209 205.735 C 342.966 206.588,345.871 212.331,345.871 212.976 C 345.871 213.172,346.149 214.073,346.490 214.978 C 346.830 215.882,347.158 217.198,347.219 217.901 C 347.280 218.604,347.577 219.777,347.879 220.507 L 348.428 221.835 348.428 230.900 L 348.428 239.965 347.874 241.506 C 347.569 242.354,347.245 243.671,347.154 244.433 C 347.003 245.705,346.422 247.626,345.394 250.258 C 344.508 252.526,341.767 257.826,341.002 258.752 C 340.554 259.294,339.921 260.265,339.594 260.910 C 338.737 262.605,333.318 267.951,332.126 268.278 C 328.529 269.264,325.626 266.825,325.626 262.818 C 325.626 260.250,325.799 259.883,328.153 257.463 C 329.350 256.232,330.293 255.044,330.617 254.359 C 330.905 253.749,331.579 252.718,332.113 252.069 C 332.648 251.420,333.085 250.823,333.085 250.743 C 333.085 250.662,333.919 248.906,334.939 246.840 L 336.793 243.083 336.868 241.147 C 336.926 239.649,337.073 238.898,337.518 237.826 C 338.362 235.793,338.404 227.576,337.580 225.679 C 337.213 224.835,337.029 223.902,336.921 222.341 C 336.781 220.318,336.700 220.029,335.701 217.972 C 335.112 216.761,334.516 215.290,334.375 214.704 C 334.010 213.179,332.850 210.809,331.936 209.720 C 331.505 209.206,330.919 208.293,330.634 207.692 C 330.320 207.028,329.348 205.804,328.162 204.578 C 325.805 202.142,325.626 201.765,325.626 199.237 C 325.626 195.282,328.552 193.724,333.468 195.062 M86.589 210.104 C 90.293 210.713,91.771 215.573,89.186 218.647 C 88.743 219.174,88.214 219.994,88.010 220.468 C 87.806 220.943,87.248 221.783,86.770 222.335 C 85.984 223.243,85.463 224.398,85.455 225.253 C 85.453 225.429,85.210 226.092,84.914 226.727 C 84.425 227.778,84.374 228.157,84.340 230.989 L 84.304 234.097 85.739 237.025 C 86.856 239.303,87.485 240.298,88.571 241.501 C 90.357 243.480,90.570 243.985,90.570 246.244 C 90.570 249.981,88.180 252.316,84.710 251.972 L 83.431 251.845 80.222 248.618 C 76.436 244.811,75.505 243.274,75.229 240.384 C 75.136 239.407,74.878 238.371,74.566 237.720 C 73.787 236.097,73.767 224.406,74.540 222.958 C 74.807 222.458,75.113 221.595,75.219 221.041 C 75.499 219.580,76.768 216.975,77.736 215.871 C 78.196 215.346,78.764 214.484,78.997 213.953 C 80.391 210.788,82.928 209.502,86.589 210.104 M315.890 210.123 C 316.164 210.123,317.491 211.280,319.480 213.254 C 323.195 216.939,324.559 219.128,324.567 221.417 C 324.569 222.221,324.750 222.991,325.141 223.868 C 325.711 225.145,325.712 225.153,325.788 231.418 L 325.863 237.689 325.318 238.905 C 325.017 239.574,324.682 240.588,324.572 241.158 C 324.300 242.573,323.079 245.001,322.033 246.210 C 321.557 246.759,320.977 247.642,320.743 248.171 C 319.482 251.020,317.199 252.303,313.934 251.997 L 312.325 251.847 310.913 250.431 C 309.435 248.949,309.217 248.464,309.217 246.657 C 309.217 245.452,309.503 244.746,310.390 243.764 C 310.792 243.320,311.374 242.449,311.685 241.830 C 311.996 241.210,312.578 240.299,312.979 239.806 C 313.792 238.803,314.330 237.660,314.333 236.927 C 314.335 236.660,314.595 235.914,314.912 235.269 C 315.457 234.162,315.489 233.927,315.496 231.007 L 315.503 227.917 313.961 224.827 C 312.759 222.419,312.132 221.431,311.121 220.352 C 309.441 218.559,309.217 218.019,309.217 215.756 C 309.217 212.297,311.562 209.768,314.521 210.037 C 315.035 210.084,315.652 210.123,315.890 210.123 M147.712 220.783 C 147.202 221.014,146.611 221.204,146.400 221.204 C 144.755 221.204,141.384 224.305,140.019 227.073 L 139.113 228.910 139.098 231.740 L 139.084 234.570 140.013 236.446 C 141.483 239.412,144.641 242.302,146.415 242.302 C 146.653 242.302,147.223 242.493,147.682 242.728 C 148.816 243.306,151.061 243.304,152.341 242.723 C 152.852 242.491,153.446 242.302,153.661 242.302 C 155.143 242.302,159.900 238.026,160.163 236.458 C 160.244 235.980,160.441 235.400,160.602 235.168 C 161.015 234.575,161.018 228.937,160.606 228.337 C 160.446 228.106,160.248 227.533,160.165 227.064 C 159.857 225.325,155.106 221.204,153.410 221.204 C 153.189 221.204,152.651 221.012,152.213 220.778 C 151.138 220.202,148.988 220.204,147.712 220.783 M246.937 220.764 C 246.498 221.006,245.902 221.204,245.613 221.204 C 245.324 221.204,244.772 221.479,244.387 221.815 C 244.002 222.151,243.302 222.620,242.833 222.858 C 241.535 223.516,239.744 225.507,239.744 226.293 C 239.744 226.644,239.409 227.585,238.999 228.383 C 238.066 230.203,237.913 233.146,238.679 234.574 C 238.913 235.011,239.105 235.563,239.106 235.799 C 239.110 237.744,243.661 242.271,245.652 242.309 C 245.860 242.313,246.414 242.501,246.883 242.728 C 248.080 243.306,250.442 243.306,251.521 242.728 C 251.958 242.493,252.511 242.302,252.749 242.302 C 254.307 242.302,258.450 238.730,259.633 236.368 C 260.533 234.569,260.501 229.063,259.578 227.109 C 258.448 224.715,254.338 221.204,252.667 221.204 C 252.410 221.204,251.968 221.042,251.685 220.844 C 250.846 220.256,247.947 220.207,246.937 220.764 " stroke="none" fill="#ebebeb" fill-rule="evenodd"></path><path id="path1" d="M186.181 107.156 C 185.865 107.505,185.828 108.458,185.828 116.375 L 185.828 125.205 189.294 128.665 C 192.535 131.902,192.811 132.126,193.556 132.126 L 194.353 132.126 194.353 134.257 L 194.353 136.388 186.255 136.388 L 178.157 136.388 178.157 141.183 L 178.157 145.978 200.639 145.978 L 223.122 145.978 223.122 141.183 L 223.122 136.388 214.065 136.388 L 205.008 136.388 205.008 134.257 L 205.008 132.126 206.023 132.126 L 207.037 132.126 210.498 128.660 L 213.958 125.195 213.958 116.333 C 213.958 108.019,213.934 107.450,213.569 107.119 C 212.937 106.547,186.700 106.582,186.181 107.156 M250.613 146.617 C 250.613 146.758,233.657 146.830,200.173 146.830 C 150.310 146.830,148.429 146.854,146.510 147.504 C 146.159 147.623,145.504 147.810,145.055 147.919 C 144.022 148.171,142.311 149.033,141.929 149.494 C 141.768 149.688,141.198 150.072,140.663 150.347 C 139.465 150.964,135.097 155.352,134.513 156.526 C 134.280 156.995,133.889 157.560,133.644 157.781 C 133.400 158.002,133.142 158.530,133.072 158.953 C 133.002 159.377,132.815 160.011,132.656 160.362 C 132.041 161.722,131.645 163.192,131.508 164.624 C 131.430 165.445,131.201 166.423,131.000 166.798 C 130.779 167.210,130.634 167.952,130.634 168.673 C 130.634 169.330,130.503 170.126,130.343 170.442 C 130.183 170.759,130.003 171.645,129.945 172.412 C 129.886 173.180,129.681 174.110,129.490 174.480 C 129.290 174.866,129.142 175.658,129.142 176.343 C 129.142 177.114,128.992 177.829,128.716 178.370 C 128.439 178.912,128.287 179.638,128.282 180.439 C 128.278 181.118,128.138 181.913,127.970 182.206 C 127.803 182.499,127.660 183.266,127.653 183.910 C 127.646 184.599,127.467 185.466,127.220 186.012 C 126.961 186.580,126.797 187.406,126.795 188.143 C 126.793 188.804,126.721 189.445,126.635 189.568 C 126.369 189.948,124.508 190.943,124.064 190.943 C 123.436 190.943,121.658 191.823,120.714 192.601 C 120.256 192.978,119.747 193.287,119.583 193.287 C 119.138 193.287,115.495 196.913,115.165 197.683 C 115.008 198.050,114.631 198.646,114.327 199.008 C 113.413 200.094,111.249 204.599,111.240 205.434 C 111.236 205.844,111.042 206.598,110.810 207.109 C 110.151 208.562,110.151 247.911,110.810 249.364 C 111.058 249.910,111.237 250.777,111.244 251.465 C 111.251 252.110,111.393 252.877,111.561 253.170 C 111.729 253.463,111.869 253.901,111.873 254.144 C 111.884 254.793,113.720 258.458,114.449 259.289 C 114.795 259.682,115.077 260.110,115.077 260.240 C 115.077 260.573,119.148 264.678,119.478 264.678 C 119.628 264.678,120.066 264.953,120.451 265.289 C 121.300 266.030,123.013 266.912,124.028 267.129 C 124.438 267.217,124.963 267.421,125.194 267.582 C 125.425 267.743,125.822 267.874,126.076 267.874 C 126.330 267.874,126.956 268.064,127.467 268.296 C 128.059 268.564,128.865 268.719,129.688 268.722 C 130.849 268.726,131.044 268.793,131.606 269.380 L 132.232 270.033 132.295 278.554 L 132.357 287.074 133.094 288.039 C 133.499 288.570,133.831 289.104,133.831 289.226 C 133.831 289.543,137.050 292.808,137.362 292.808 C 137.506 292.808,138.134 293.191,138.758 293.660 C 139.382 294.129,139.954 294.513,140.028 294.513 C 140.103 294.513,140.585 294.847,141.099 295.256 L 142.035 296.000 146.867 296.002 L 151.699 296.004 152.341 295.464 C 152.694 295.167,153.605 294.605,154.367 294.215 C 155.128 293.825,156.131 293.205,156.595 292.837 C 157.060 292.469,157.552 292.168,157.689 292.168 C 158.479 292.168,160.344 289.852,161.649 287.250 L 162.992 284.570 163.062 276.979 C 163.137 268.960,163.201 268.453,164.045 269.218 C 164.408 269.546,164.460 269.546,164.790 269.216 C 165.082 268.923,165.230 268.906,165.630 269.116 C 166.001 269.309,175.307 269.382,204.759 269.421 C 242.734 269.472,243.407 269.480,243.704 269.886 C 243.949 270.222,244.006 271.511,244.006 276.711 C 244.006 281.765,244.068 283.212,244.296 283.543 C 244.455 283.775,244.649 284.314,244.728 284.742 C 244.892 285.639,245.748 287.343,246.424 288.119 C 246.680 288.412,247.070 289.011,247.292 289.450 C 248.041 290.934,249.878 292.416,252.741 293.848 L 255.402 295.179 259.843 295.179 C 263.513 295.179,264.373 295.121,264.793 294.846 C 265.073 294.662,265.502 294.513,265.746 294.513 C 266.321 294.513,267.234 294.036,267.748 293.469 C 267.971 293.222,268.294 293.021,268.466 293.021 C 268.855 293.021,272.349 289.637,272.349 289.261 C 272.349 289.110,272.623 288.672,272.958 288.287 C 273.742 287.383,274.054 286.777,274.054 286.156 C 274.054 285.882,274.195 285.456,274.367 285.210 C 274.539 284.965,274.744 284.366,274.821 283.880 C 274.899 283.393,275.049 282.942,275.154 282.877 C 275.260 282.812,275.285 282.431,275.210 282.031 C 275.012 280.980,275.244 280.277,275.813 280.196 C 276.466 280.103,276.575 279.278,275.977 278.958 C 275.343 278.619,275.466 269.913,276.115 269.131 C 276.252 268.966,276.431 268.565,276.512 268.240 C 276.686 267.550,277.078 267.302,278.305 267.105 C 278.857 267.017,279.528 266.688,280.057 266.246 C 280.528 265.852,281.025 265.529,281.160 265.528 C 281.296 265.527,281.828 265.191,282.342 264.782 C 282.857 264.373,283.369 264.038,283.479 264.038 C 283.795 264.038,286.414 261.447,286.414 261.135 C 286.414 260.982,286.689 260.542,287.024 260.157 C 287.360 259.772,287.804 259.121,288.013 258.711 C 288.221 258.300,288.666 257.650,289.001 257.265 C 289.337 256.880,289.611 256.326,289.611 256.034 C 289.611 255.742,289.935 254.859,290.330 254.070 C 290.935 252.863,291.063 252.349,291.142 250.813 C 291.206 249.569,291.350 248.825,291.595 248.475 C 292.151 247.681,292.149 211.985,291.593 211.191 C 291.338 210.828,291.203 210.099,291.139 208.746 C 291.085 207.600,290.930 206.649,290.756 206.399 C 290.595 206.168,290.464 205.597,290.464 205.130 C 290.464 204.202,288.953 200.840,288.050 199.759 C 287.770 199.423,287.391 198.860,287.209 198.508 C 286.841 197.799,282.341 193.287,282.001 193.287 C 281.883 193.287,281.365 192.952,280.850 192.543 C 280.336 192.134,279.716 191.799,279.473 191.797 C 279.230 191.796,278.165 191.374,277.106 190.858 C 274.515 189.597,274.054 188.849,274.054 185.900 C 274.054 184.314,273.965 183.718,273.628 183.058 C 273.352 182.518,273.202 181.802,273.202 181.031 C 273.202 180.347,273.054 179.554,272.854 179.168 C 272.663 178.798,272.458 177.868,272.400 177.101 C 272.341 176.334,272.162 175.447,272.001 175.130 C 271.841 174.814,271.710 174.019,271.710 173.364 C 271.710 172.593,271.560 171.878,271.284 171.337 C 271.008 170.797,270.858 170.081,270.858 169.311 C 270.858 168.626,270.710 167.834,270.510 167.447 C 270.319 167.077,270.114 166.147,270.055 165.380 C 269.997 164.613,269.817 163.726,269.657 163.410 C 269.497 163.093,269.366 162.481,269.366 162.050 C 269.366 161.516,268.927 160.376,267.987 158.470 C 265.285 152.989,258.205 147.536,253.350 147.195 C 252.535 147.138,251.721 146.948,251.438 146.750 C 250.872 146.353,250.613 146.312,250.613 146.617 M179.755 157.272 C 180.579 157.670,181.284 157.684,201.172 157.684 C 221.060 157.684,221.765 157.670,222.589 157.272 C 223.937 156.621,247.205 156.621,248.482 157.272 C 249.020 157.547,249.738 157.698,250.502 157.698 C 253.760 157.698,258.223 161.316,258.807 164.430 C 258.891 164.877,259.095 165.436,259.261 165.673 C 259.438 165.926,259.566 166.636,259.570 167.389 C 259.575 168.209,259.726 168.981,259.989 169.526 C 260.252 170.070,260.404 170.842,260.408 171.663 C 260.412 172.387,260.542 173.131,260.706 173.368 C 260.865 173.599,261.043 174.472,261.102 175.307 C 261.165 176.217,261.348 177.026,261.557 177.326 C 261.785 177.651,261.910 178.273,261.915 179.110 C 261.919 179.930,262.071 180.702,262.334 181.247 C 262.596 181.791,262.748 182.563,262.752 183.384 C 262.757 184.195,262.883 184.844,263.094 185.145 C 263.798 186.151,263.519 189.099,262.699 189.319 C 262.440 189.388,234.363 189.447,200.307 189.448 C 131.640 189.452,137.368 189.583,137.838 188.014 C 137.978 187.547,138.093 186.645,138.093 186.011 C 138.093 185.286,138.223 184.672,138.443 184.358 C 138.652 184.059,138.835 183.249,138.898 182.339 C 138.957 181.504,139.135 180.631,139.294 180.400 C 139.458 180.163,139.588 179.419,139.592 178.695 C 139.596 177.875,139.748 177.103,140.011 176.558 C 140.274 176.014,140.425 175.242,140.430 174.421 C 140.434 173.585,140.559 172.963,140.787 172.637 C 140.996 172.338,141.179 171.529,141.243 170.619 C 141.301 169.783,141.479 168.910,141.638 168.679 C 141.802 168.442,141.932 167.699,141.936 166.974 C 141.940 166.154,142.092 165.382,142.355 164.838 C 142.581 164.369,142.770 163.756,142.774 163.476 C 142.797 161.834,148.104 157.704,150.206 157.691 C 150.948 157.687,151.740 157.526,152.264 157.272 C 153.078 156.879,153.704 156.860,166.010 156.860 C 178.315 156.860,178.941 156.879,179.755 157.272 M273.556 200.569 C 274.240 200.824,274.952 201.159,275.137 201.315 C 275.322 201.471,275.570 201.598,275.689 201.598 C 276.809 201.598,279.937 205.871,280.682 208.418 C 281.210 210.223,281.207 247.711,280.679 249.754 C 279.878 252.852,276.468 257.219,274.849 257.219 C 274.723 257.219,274.469 257.344,274.284 257.498 C 274.099 257.651,273.181 257.963,272.243 258.190 C 269.560 258.842,132.014 258.840,129.675 258.189 C 126.632 257.341,123.493 254.936,122.543 252.721 C 122.422 252.441,122.241 252.067,122.139 251.891 C 121.904 251.486,121.489 250.300,121.244 249.334 C 120.996 248.360,120.996 210.031,121.244 209.057 C 121.485 208.105,121.902 206.911,122.135 206.500 C 122.235 206.324,122.462 205.855,122.641 205.459 C 123.424 203.715,126.601 201.254,129.355 200.256 C 129.531 200.192,161.768 200.133,200.993 200.123 L 272.312 200.107 273.556 200.569 " stroke="none" fill="#4c2a23" fill-rule="evenodd"></path><path id="path2" d="M129.355 200.256 C 126.601 201.254,123.424 203.715,122.641 205.459 C 122.462 205.855,122.235 206.324,122.135 206.500 C 121.902 206.911,121.485 208.105,121.244 209.057 C 120.996 210.031,120.996 248.360,121.244 249.334 C 121.489 250.300,121.904 251.486,122.139 251.891 C 122.241 252.067,122.422 252.441,122.543 252.721 C 123.493 254.936,126.632 257.341,129.675 258.189 C 132.014 258.840,269.560 258.842,272.243 258.190 C 273.181 257.963,274.099 257.651,274.284 257.498 C 274.469 257.344,274.723 257.219,274.849 257.219 C 276.468 257.219,279.878 252.852,280.679 249.754 C 281.207 247.711,281.210 210.223,280.682 208.418 C 279.937 205.871,276.809 201.598,275.689 201.598 C 275.570 201.598,275.322 201.471,275.137 201.315 C 274.952 201.159,274.240 200.824,273.556 200.569 L 272.312 200.107 200.993 200.123 C 161.768 200.133,129.531 200.192,129.355 200.256 M152.213 220.778 C 152.651 221.012,153.189 221.204,153.410 221.204 C 155.106 221.204,159.857 225.325,160.165 227.064 C 160.248 227.533,160.446 228.106,160.606 228.337 C 161.018 228.937,161.015 234.575,160.602 235.168 C 160.441 235.400,160.244 235.980,160.163 236.458 C 159.900 238.026,155.143 242.302,153.661 242.302 C 153.446 242.302,152.852 242.491,152.341 242.723 C 151.061 243.304,148.816 243.306,147.682 242.728 C 147.223 242.493,146.653 242.302,146.415 242.302 C 144.641 242.302,141.483 239.412,140.013 236.446 L 139.084 234.570 139.098 231.740 L 139.113 228.910 140.019 227.073 C 141.384 224.305,144.755 221.204,146.400 221.204 C 146.611 221.204,147.202 221.014,147.712 220.783 C 148.988 220.204,151.138 220.202,152.213 220.778 M251.685 220.844 C 251.968 221.042,252.410 221.204,252.667 221.204 C 254.338 221.204,258.448 224.715,259.578 227.109 C 260.501 229.063,260.533 234.569,259.633 236.368 C 258.450 238.730,254.307 242.302,252.749 242.302 C 252.511 242.302,251.958 242.493,251.521 242.728 C 250.442 243.306,248.080 243.306,246.883 242.728 C 246.414 242.501,245.860 242.313,245.652 242.309 C 243.661 242.271,239.110 237.744,239.106 235.799 C 239.105 235.563,238.913 235.011,238.679 234.574 C 237.913 233.146,238.066 230.203,238.999 228.383 C 239.409 227.585,239.744 226.644,239.744 226.293 C 239.744 225.507,241.535 223.516,242.833 222.858 C 243.302 222.620,244.002 222.151,244.387 221.815 C 244.772 221.479,245.324 221.204,245.613 221.204 C 245.902 221.204,246.498 221.006,246.937 220.764 C 247.947 220.207,250.846 220.256,251.685 220.844 " stroke="none" fill="#faca54" fill-rule="evenodd"></path><path id="path3" d="M188.173 32.264 C 187.762 32.421,187.070 32.706,186.634 32.897 C 186.199 33.088,185.352 33.245,184.752 33.245 C 184.007 33.245,183.202 33.447,182.206 33.884 C 181.186 34.331,180.409 34.523,179.617 34.523 C 178.683 34.523,178.049 34.731,176.008 35.703 C 174.647 36.353,173.158 36.943,172.701 37.016 C 171.594 37.192,163.673 41.105,162.707 41.953 C 162.288 42.321,161.445 42.874,160.834 43.182 C 160.223 43.490,159.360 44.068,158.916 44.467 C 158.472 44.865,157.609 45.430,156.998 45.721 C 155.732 46.325,147.778 53.945,147.176 55.131 C 146.385 56.689,146.786 59.048,148.068 60.380 C 149.782 62.161,151.396 62.648,154.076 62.194 L 155.461 61.959 158.764 58.710 C 161.080 56.432,162.417 55.286,163.239 54.874 C 163.884 54.551,165.092 53.642,165.925 52.853 C 167.301 51.550,167.577 51.386,168.968 51.045 C 170.111 50.765,170.752 50.457,171.504 49.830 C 172.699 48.831,175.580 47.406,176.753 47.234 C 177.211 47.167,178.602 46.616,179.843 46.009 C 181.702 45.101,182.380 44.880,183.697 44.757 C 184.668 44.666,185.655 44.423,186.210 44.138 C 186.886 43.792,187.720 43.625,189.407 43.501 C 191.195 43.369,191.896 43.221,192.648 42.817 L 193.607 42.302 201.385 42.302 L 209.164 42.302 210.337 42.853 C 211.019 43.173,212.122 43.467,212.973 43.554 C 213.777 43.636,214.831 43.906,215.316 44.153 C 215.816 44.409,216.886 44.674,217.794 44.767 C 218.770 44.866,219.849 45.144,220.565 45.478 C 221.209 45.780,221.971 46.028,222.257 46.029 C 222.542 46.030,223.903 46.560,225.280 47.207 C 226.657 47.854,228.211 48.463,228.733 48.560 C 229.708 48.742,230.959 49.402,231.449 49.993 C 231.601 50.176,232.212 50.569,232.805 50.865 C 233.398 51.161,234.318 51.764,234.848 52.205 C 235.378 52.646,236.309 53.259,236.918 53.568 C 237.526 53.876,238.339 54.403,238.724 54.740 C 239.109 55.076,239.952 55.615,240.597 55.938 C 241.384 56.332,242.643 57.386,244.433 59.150 C 247.311 61.986,247.767 62.264,249.547 62.264 C 253.401 62.264,256.028 57.513,254.229 53.797 C 253.626 52.551,248.616 47.830,246.954 46.942 C 246.247 46.564,245.010 45.634,244.206 44.875 C 243.115 43.847,242.538 43.461,241.936 43.360 C 240.443 43.109,239.693 42.787,238.866 42.039 C 238.413 41.631,236.915 40.743,235.537 40.068 C 234.159 39.392,232.792 38.579,232.499 38.259 C 231.818 37.518,231.133 37.175,229.977 36.998 C 229.469 36.920,228.585 36.619,228.013 36.329 C 227.440 36.039,226.721 35.802,226.415 35.802 C 226.108 35.802,225.202 35.514,224.401 35.162 C 223.399 34.723,222.601 34.523,221.843 34.523 C 221.086 34.523,220.288 34.324,219.286 33.884 C 218.269 33.437,217.486 33.244,216.693 33.242 C 215.885 33.241,215.218 33.072,214.385 32.656 L 213.213 32.072 201.066 32.025 C 191.327 31.987,188.771 32.034,188.173 32.264 M191.556 55.856 C 191.160 55.927,190.357 56.178,189.771 56.413 C 189.185 56.648,188.102 56.907,187.364 56.988 C 186.626 57.069,185.581 57.325,185.040 57.557 C 184.500 57.788,183.618 58.075,183.079 58.194 C 181.701 58.498,176.195 61.225,175.231 62.081 C 174.789 62.473,173.996 63.000,173.468 63.251 C 172.941 63.502,172.060 64.070,171.510 64.513 C 170.961 64.955,169.931 65.644,169.222 66.044 C 165.851 67.945,164.521 70.107,164.519 73.690 C 164.517 77.506,165.403 78.454,168.958 78.442 C 171.690 78.432,171.865 78.352,174.295 75.998 C 175.510 74.820,176.827 73.765,177.519 73.415 C 178.163 73.089,179.068 72.499,179.531 72.103 C 180.572 71.213,183.016 70.035,184.465 69.724 C 185.062 69.596,186.540 69.007,187.749 68.416 C 189.797 67.415,190.056 67.341,191.563 67.339 C 192.804 67.336,193.603 67.188,194.992 66.702 C 197.649 65.773,205.265 65.721,207.410 66.618 C 208.400 67.032,209.306 67.213,210.975 67.330 L 213.213 67.487 217.155 69.446 C 219.323 70.523,221.433 71.690,221.843 72.038 C 222.254 72.386,223.165 72.970,223.868 73.336 C 224.662 73.750,225.913 74.753,227.171 75.986 C 229.574 78.339,229.760 78.423,232.587 78.423 C 236.845 78.423,239.542 74.683,237.758 71.255 C 237.216 70.213,231.858 65.144,230.687 64.565 C 230.101 64.275,229.218 63.694,228.726 63.274 C 227.829 62.509,221.922 59.493,219.712 58.671 C 216.811 57.593,215.657 57.250,214.065 56.996 C 213.127 56.845,211.912 56.529,211.364 56.293 C 210.352 55.856,193.613 55.487,191.556 55.856 M195.099 78.402 C 194.747 78.492,194.125 78.739,193.715 78.952 C 193.306 79.165,192.232 79.414,191.329 79.505 C 187.625 79.878,180.436 85.612,179.861 88.652 C 179.197 92.158,181.631 94.832,185.488 94.832 C 187.780 94.832,188.092 94.704,190.092 92.939 C 191.358 91.822,192.431 91.141,194.699 90.017 L 197.656 88.552 200.746 88.567 C 203.636 88.582,203.912 88.619,205.008 89.148 C 205.653 89.459,206.324 89.715,206.500 89.717 C 207.345 89.725,208.504 90.241,209.378 90.997 C 209.908 91.456,210.796 92.032,211.351 92.278 C 211.906 92.523,212.808 93.102,213.356 93.564 C 217.498 97.056,222.688 93.241,221.653 87.465 C 221.389 85.991,219.627 84.064,217.813 83.265 C 217.275 83.029,216.406 82.459,215.882 81.999 C 214.763 81.017,212.167 79.760,210.660 79.472 C 210.077 79.360,209.214 79.054,208.742 78.793 C 207.841 78.293,196.770 77.976,195.099 78.402 M250.614 146.031 C 250.617 146.523,251.970 147.092,253.383 147.194 C 256.194 147.398,260.808 149.966,263.992 153.099 C 266.877 155.937,269.366 160.084,269.366 162.050 C 269.366 162.481,269.497 163.093,269.657 163.410 C 269.817 163.726,269.997 164.613,270.055 165.380 C 270.114 166.147,270.319 167.077,270.510 167.447 C 270.710 167.834,270.858 168.626,270.858 169.311 C 270.858 170.081,271.008 170.797,271.284 171.337 C 271.560 171.878,271.710 172.593,271.710 173.364 C 271.710 174.019,271.841 174.814,272.001 175.130 C 272.162 175.447,272.341 176.334,272.400 177.101 C 272.458 177.868,272.663 178.798,272.854 179.168 C 273.054 179.554,273.202 180.347,273.202 181.031 C 273.202 181.802,273.352 182.518,273.628 183.058 C 273.965 183.718,274.054 184.314,274.054 185.900 C 274.054 188.849,274.515 189.597,277.106 190.858 C 278.165 191.374,279.230 191.796,279.473 191.797 C 279.716 191.799,280.336 192.134,280.850 192.543 C 281.365 192.952,281.883 193.287,282.001 193.287 C 282.341 193.287,286.841 197.799,287.209 198.508 C 287.391 198.860,287.770 199.423,288.050 199.759 C 288.953 200.840,290.464 204.202,290.464 205.130 C 290.464 205.597,290.595 206.168,290.756 206.399 C 290.930 206.649,291.085 207.600,291.139 208.746 C 291.203 210.099,291.338 210.828,291.593 211.191 C 292.149 211.985,292.151 247.681,291.595 248.475 C 291.350 248.825,291.206 249.569,291.142 250.813 C 291.063 252.349,290.935 252.863,290.330 254.070 C 289.935 254.859,289.611 255.742,289.611 256.034 C 289.611 256.326,289.337 256.880,289.001 257.265 C 288.666 257.650,288.221 258.300,288.013 258.711 C 287.804 259.121,287.360 259.772,287.024 260.157 C 286.689 260.542,286.414 260.982,286.414 261.135 C 286.414 261.447,283.795 264.038,283.479 264.038 C 283.369 264.038,282.857 264.373,282.342 264.782 C 281.828 265.191,281.296 265.527,281.160 265.528 C 281.025 265.529,280.528 265.852,280.057 266.246 C 279.528 266.688,278.857 267.017,278.305 267.105 C 277.078 267.302,276.686 267.550,276.512 268.240 C 276.431 268.565,276.252 268.966,276.115 269.131 C 275.466 269.913,275.343 278.619,275.977 278.958 C 276.575 279.278,276.466 280.103,275.813 280.196 C 275.244 280.277,275.012 280.980,275.210 282.031 C 275.285 282.431,275.260 282.812,275.154 282.877 C 275.049 282.942,274.899 283.393,274.821 283.880 C 274.744 284.366,274.539 284.965,274.367 285.210 C 274.195 285.456,274.054 285.882,274.054 286.156 C 274.054 286.777,273.742 287.383,272.958 288.287 C 272.623 288.672,272.349 289.110,272.349 289.261 C 272.349 289.637,268.855 293.021,268.466 293.021 C 268.294 293.021,267.971 293.222,267.748 293.469 C 267.234 294.036,266.321 294.513,265.746 294.513 C 265.502 294.513,265.073 294.662,264.793 294.846 C 264.373 295.121,263.513 295.179,259.843 295.179 L 255.402 295.179 252.741 293.848 C 249.878 292.416,248.041 290.934,247.292 289.450 C 247.070 289.011,246.680 288.412,246.424 288.119 C 245.748 287.343,244.892 285.639,244.728 284.742 C 244.649 284.314,244.455 283.775,244.296 283.543 C 244.068 283.212,244.006 281.765,244.006 276.711 C 244.006 271.511,243.949 270.222,243.704 269.886 C 243.407 269.480,242.734 269.472,204.759 269.421 C 175.694 269.383,165.998 269.308,165.639 269.120 C 165.250 268.916,165.089 268.935,164.774 269.220 C 164.415 269.545,164.362 269.545,164.028 269.211 C 163.210 268.393,163.136 268.986,163.062 276.979 L 162.992 284.570 161.649 287.250 C 160.344 289.852,158.479 292.168,157.689 292.168 C 157.552 292.168,157.060 292.469,156.595 292.837 C 156.131 293.205,155.128 293.825,154.367 294.215 C 153.605 294.605,152.694 295.167,152.341 295.464 L 151.699 296.004 146.867 296.002 L 142.035 296.000 141.099 295.256 C 140.585 294.847,140.103 294.513,140.028 294.513 C 139.954 294.513,139.382 294.129,138.758 293.660 C 138.134 293.191,137.506 292.808,137.362 292.808 C 137.050 292.808,133.831 289.543,133.831 289.226 C 133.831 289.104,133.499 288.570,133.094 288.039 L 132.357 287.074 132.295 278.554 L 132.232 270.033 131.606 269.380 C 131.044 268.793,130.849 268.726,129.688 268.722 C 128.865 268.719,128.059 268.564,127.467 268.296 C 126.956 268.064,126.330 267.874,126.076 267.874 C 125.822 267.874,125.425 267.743,125.194 267.582 C 124.963 267.421,124.438 267.217,124.028 267.129 C 123.013 266.912,121.300 266.030,120.451 265.289 C 120.066 264.953,119.628 264.678,119.478 264.678 C 119.148 264.678,115.077 260.573,115.077 260.240 C 115.077 260.110,114.795 259.682,114.449 259.289 C 113.720 258.458,111.884 254.793,111.873 254.144 C 111.869 253.901,111.729 253.463,111.561 253.170 C 111.393 252.877,111.251 252.110,111.244 251.465 C 111.237 250.777,111.058 249.910,110.810 249.364 C 110.151 247.911,110.151 208.562,110.810 207.109 C 111.042 206.598,111.236 205.844,111.240 205.434 C 111.249 204.599,113.413 200.094,114.327 199.008 C 114.631 198.646,115.008 198.050,115.165 197.683 C 115.495 196.913,119.138 193.287,119.583 193.287 C 119.747 193.287,120.256 192.978,120.714 192.601 C 121.658 191.823,123.436 190.943,124.064 190.943 C 124.508 190.943,126.369 189.948,126.635 189.568 C 126.721 189.445,126.793 188.804,126.795 188.143 C 126.797 187.406,126.961 186.580,127.220 186.012 C 127.467 185.466,127.646 184.599,127.653 183.910 C 127.660 183.266,127.803 182.499,127.970 182.206 C 128.138 181.913,128.278 181.118,128.282 180.439 C 128.287 179.638,128.439 178.912,128.716 178.370 C 128.992 177.829,129.142 177.114,129.142 176.343 C 129.142 175.658,129.290 174.866,129.490 174.480 C 129.681 174.110,129.886 173.180,129.945 172.412 C 130.003 171.645,130.183 170.759,130.343 170.442 C 130.503 170.126,130.634 169.330,130.634 168.673 C 130.634 167.952,130.779 167.210,131.000 166.798 C 131.201 166.423,131.430 165.445,131.508 164.624 C 131.645 163.192,132.041 161.722,132.656 160.362 C 132.815 160.011,133.002 159.377,133.072 158.953 C 133.142 158.530,133.400 158.002,133.644 157.781 C 133.889 157.560,134.280 156.995,134.513 156.526 C 135.097 155.352,139.465 150.964,140.663 150.347 C 141.198 150.072,141.768 149.688,141.929 149.494 C 142.311 149.033,144.022 148.171,145.055 147.919 C 145.504 147.810,146.159 147.621,146.510 147.499 C 146.862 147.378,147.628 147.202,148.214 147.108 C 149.010 146.980,149.297 146.835,149.354 146.533 C 149.415 146.210,149.351 146.163,149.036 146.300 C 148.819 146.394,148.102 146.530,147.442 146.602 C 146.783 146.675,146.112 146.843,145.951 146.976 C 145.790 147.109,145.288 147.287,144.835 147.372 C 143.903 147.546,142.296 148.368,141.502 149.077 C 141.209 149.338,140.734 149.624,140.445 149.712 C 139.768 149.917,134.643 155.038,134.149 156.003 C 133.941 156.408,133.497 157.054,133.162 157.439 C 132.826 157.824,132.550 158.352,132.547 158.612 C 132.545 158.871,132.353 159.502,132.121 160.013 C 131.889 160.524,131.696 161.099,131.692 161.291 C 131.688 161.484,131.500 162.025,131.273 162.493 C 131.010 163.038,130.859 163.810,130.854 164.630 C 130.850 165.354,130.721 166.098,130.557 166.335 C 130.397 166.566,130.219 167.439,130.161 168.274 C 130.098 169.184,129.915 169.994,129.705 170.293 C 129.477 170.618,129.353 171.241,129.348 172.077 C 129.344 172.898,129.192 173.670,128.929 174.214 C 128.666 174.759,128.515 175.531,128.510 176.351 C 128.506 177.075,128.376 177.819,128.213 178.056 C 128.053 178.287,127.875 179.160,127.817 179.995 C 127.754 180.905,127.571 181.715,127.361 182.014 C 127.133 182.339,127.009 182.962,127.004 183.798 C 126.999 184.618,126.848 185.391,126.585 185.935 C 126.329 186.466,126.170 187.251,126.166 188.016 C 126.158 189.396,125.706 189.858,123.921 190.313 C 122.683 190.628,121.102 191.379,120.671 191.855 C 120.466 192.082,119.867 192.490,119.339 192.761 C 118.157 193.370,115.060 196.495,114.475 197.670 C 114.237 198.147,113.883 198.669,113.688 198.831 C 113.029 199.379,110.603 204.513,110.595 205.378 C 110.591 205.819,110.402 206.564,110.176 207.032 C 109.778 207.857,109.764 208.559,109.764 228.237 C 109.764 247.914,109.778 248.616,110.176 249.441 C 110.439 249.985,110.590 250.757,110.595 251.578 C 110.599 252.308,110.728 253.043,110.894 253.282 C 111.055 253.514,111.255 254.038,111.338 254.449 C 111.531 255.400,113.022 258.365,113.823 259.391 C 114.161 259.823,114.438 260.292,114.438 260.433 C 114.438 260.806,118.481 264.871,119.233 265.254 C 119.584 265.433,120.066 265.756,120.302 265.972 C 120.938 266.552,122.749 267.487,123.601 267.676 C 124.452 267.864,126.173 268.438,127.118 268.848 C 127.469 269.001,128.417 269.161,129.224 269.204 C 130.510 269.274,130.754 269.356,131.195 269.869 L 131.700 270.455 131.700 278.854 L 131.700 287.252 132.310 287.952 C 132.646 288.337,133.118 289.036,133.359 289.505 C 133.901 290.558,136.410 293.032,137.560 293.647 C 138.417 294.106,139.015 294.503,140.958 295.905 L 142.011 296.665 147.071 296.601 L 152.131 296.537 152.730 295.973 C 153.060 295.663,154.007 295.072,154.834 294.659 C 155.661 294.247,156.470 293.750,156.632 293.555 C 156.794 293.360,157.364 292.979,157.899 292.708 C 159.536 291.878,160.872 290.233,162.348 287.230 L 163.675 284.528 163.660 277.477 C 163.644 270.179,163.658 270.005,164.275 270.005 C 164.479 270.005,164.740 269.911,164.855 269.796 C 164.992 269.659,165.505 269.658,166.336 269.795 C 167.130 269.925,181.753 270.003,205.232 270.004 C 234.209 270.005,242.914 270.064,243.111 270.261 C 243.299 270.448,243.367 272.176,243.367 276.703 C 243.367 282.327,243.405 282.987,243.782 283.960 C 244.011 284.548,244.247 285.269,244.307 285.562 C 244.368 285.855,244.754 286.622,245.166 287.267 C 245.578 287.912,246.085 288.725,246.292 289.075 C 247.454 291.032,249.808 293.035,252.581 294.428 L 255.295 295.791 259.750 295.791 C 263.733 295.791,264.303 295.747,265.134 295.370 C 265.645 295.138,266.255 294.945,266.489 294.941 C 266.723 294.938,267.336 294.600,267.851 294.191 C 268.366 293.782,268.880 293.447,268.994 293.447 C 269.330 293.447,272.573 290.202,272.933 289.505 C 273.115 289.153,273.538 288.532,273.872 288.124 C 274.207 287.716,274.483 287.189,274.485 286.952 C 274.488 286.715,274.680 286.103,274.911 285.592 C 275.143 285.081,275.333 284.350,275.333 283.967 C 275.333 283.584,275.477 283.151,275.653 283.005 C 275.828 282.859,275.972 282.407,275.972 282.000 C 275.972 281.583,276.158 281.024,276.399 280.719 C 276.801 280.207,276.825 279.854,276.825 274.345 C 276.825 267.702,276.835 267.661,278.513 267.661 C 279.111 267.661,279.545 267.497,280.035 267.084 C 280.674 266.546,282.052 265.620,283.529 264.736 C 284.476 264.169,286.629 262.097,286.983 261.411 C 287.155 261.080,287.624 260.377,288.027 259.850 C 288.429 259.323,288.759 258.770,288.759 258.621 C 288.759 258.472,288.960 258.168,289.207 257.945 C 289.751 257.453,290.250 256.525,290.251 256.004 C 290.252 255.793,290.588 254.968,290.997 254.169 C 291.649 252.900,291.742 252.522,291.742 251.156 C 291.742 250.055,291.867 249.320,292.164 248.665 C 292.827 247.203,292.831 212.274,292.168 210.975 C 291.855 210.361,291.742 209.719,291.742 208.556 C 291.742 207.434,291.619 206.702,291.321 206.044 C 291.089 205.533,290.897 204.801,290.894 204.418 C 290.889 203.627,289.305 200.334,288.461 199.361 C 288.156 199.009,287.907 198.594,287.906 198.438 C 287.906 198.005,283.215 193.297,282.334 192.846 C 281.907 192.628,281.428 192.322,281.269 192.167 C 280.681 191.592,279.914 191.156,279.494 191.158 C 279.257 191.159,278.273 190.762,277.309 190.277 C 274.963 189.096,274.484 188.238,274.474 185.201 C 274.469 183.749,274.377 183.046,274.154 182.751 C 273.961 182.496,273.838 181.841,273.834 181.046 C 273.829 180.219,273.679 179.448,273.415 178.903 C 273.152 178.358,273.001 177.586,272.996 176.766 C 272.991 175.929,272.867 175.307,272.639 174.981 C 272.429 174.682,272.246 173.873,272.183 172.963 C 272.125 172.127,271.947 171.255,271.787 171.023 C 271.624 170.786,271.494 170.043,271.490 169.319 C 271.485 168.498,271.334 167.726,271.071 167.182 C 270.808 166.637,270.656 165.865,270.652 165.045 C 270.647 164.242,270.521 163.584,270.315 163.290 C 270.134 163.032,269.928 162.315,269.858 161.698 C 269.573 159.200,267.410 155.597,264.428 152.656 L 261.801 150.063 258.340 148.340 C 255.262 146.807,254.749 146.617,253.697 146.617 C 252.934 146.617,252.217 146.465,251.678 146.191 C 250.698 145.691,250.612 145.678,250.614 146.031 M152.264 157.272 C 151.740 157.526,150.948 157.687,150.206 157.691 C 148.104 157.704,142.797 161.834,142.774 163.476 C 142.770 163.756,142.581 164.369,142.355 164.838 C 142.092 165.382,141.940 166.154,141.936 166.974 C 141.932 167.699,141.802 168.442,141.638 168.679 C 141.479 168.910,141.301 169.783,141.243 170.619 C 141.179 171.529,140.996 172.338,140.787 172.637 C 140.559 172.963,140.434 173.585,140.430 174.421 C 140.425 175.242,140.274 176.014,140.011 176.558 C 139.748 177.103,139.596 177.875,139.592 178.695 C 139.588 179.419,139.458 180.163,139.294 180.400 C 139.135 180.631,138.957 181.504,138.898 182.339 C 138.835 183.249,138.652 184.059,138.443 184.358 C 138.223 184.672,138.093 185.286,138.093 186.011 C 138.093 186.645,137.978 187.547,137.838 188.014 C 137.368 189.583,131.640 189.452,200.307 189.448 C 234.363 189.447,262.440 189.388,262.699 189.319 C 263.519 189.099,263.798 186.151,263.094 185.145 C 262.883 184.844,262.757 184.195,262.752 183.384 C 262.748 182.563,262.596 181.791,262.334 181.247 C 262.071 180.702,261.919 179.930,261.915 179.110 C 261.910 178.273,261.785 177.651,261.557 177.326 C 261.348 177.026,261.165 176.217,261.102 175.307 C 261.043 174.472,260.865 173.599,260.706 173.368 C 260.542 173.131,260.412 172.387,260.408 171.663 C 260.404 170.842,260.252 170.070,259.989 169.526 C 259.726 168.981,259.575 168.209,259.570 167.389 C 259.566 166.636,259.438 165.926,259.261 165.673 C 259.095 165.436,258.891 164.877,258.807 164.430 C 258.223 161.316,253.760 157.698,250.502 157.698 C 249.738 157.698,249.020 157.547,248.482 157.272 C 247.205 156.621,223.937 156.621,222.589 157.272 C 221.765 157.670,221.060 157.684,201.172 157.684 C 181.284 157.684,180.579 157.670,179.755 157.272 C 178.941 156.879,178.315 156.860,166.010 156.860 C 153.704 156.860,153.078 156.879,152.264 157.272 M179.678 157.907 C 181.132 158.567,221.212 158.567,222.666 157.907 C 223.982 157.310,247.403 157.244,248.247 157.835 C 248.544 158.044,249.360 158.229,250.260 158.294 C 253.838 158.550,258.283 162.151,258.284 164.795 C 258.284 165.006,258.427 165.454,258.601 165.791 C 258.776 166.128,258.954 167.012,258.997 167.757 C 259.041 168.501,259.234 169.414,259.426 169.787 C 259.628 170.178,259.776 170.967,259.776 171.655 C 259.776 172.425,259.927 173.141,260.202 173.681 C 260.478 174.222,260.629 174.937,260.629 175.708 C 260.629 176.363,260.771 177.175,260.945 177.512 C 261.120 177.849,261.298 178.733,261.341 179.477 C 261.385 180.222,261.578 181.135,261.770 181.508 C 261.973 181.899,262.120 182.688,262.120 183.376 C 262.120 184.146,262.271 184.862,262.547 185.402 C 263.064 186.415,263.111 188.004,262.638 188.477 C 262.335 188.780,256.502 188.812,201.614 188.812 C 168.236 188.812,140.321 188.875,139.582 188.952 L 138.239 189.093 138.404 188.366 C 138.495 187.967,138.605 187.085,138.649 186.407 C 138.693 185.729,138.873 184.894,139.050 184.553 C 139.227 184.211,139.371 183.396,139.371 182.741 C 139.371 181.970,139.522 181.254,139.798 180.714 C 140.073 180.173,140.224 179.458,140.224 178.687 C 140.224 177.999,140.372 177.210,140.574 176.819 C 140.766 176.447,140.959 175.533,141.003 174.789 C 141.046 174.045,141.224 173.160,141.399 172.823 C 141.573 172.487,141.716 171.675,141.716 171.020 C 141.716 170.249,141.866 169.534,142.142 168.993 C 142.417 168.453,142.568 167.737,142.568 166.966 C 142.568 166.311,142.704 165.513,142.869 165.192 C 143.035 164.872,143.239 164.245,143.323 163.799 C 143.707 161.753,148.049 158.343,150.286 158.332 C 150.937 158.329,151.771 158.157,152.264 157.923 C 153.618 157.282,178.270 157.268,179.678 157.907 M49.547 177.435 C 48.424 178.009,43.314 183.437,42.725 184.683 C 42.433 185.300,41.529 186.522,40.715 187.399 C 39.601 188.601,39.203 189.195,39.100 189.808 C 38.846 191.315,38.537 192.023,37.721 192.966 C 37.274 193.482,36.431 194.898,35.846 196.113 C 35.262 197.327,34.390 198.776,33.909 199.332 C 33.427 199.888,32.981 200.601,32.916 200.917 C 32.656 202.191,32.324 203.237,31.942 203.987 C 31.721 204.422,31.540 205.011,31.540 205.297 C 31.540 205.582,31.252 206.492,30.900 207.318 C 30.468 208.334,30.261 209.175,30.261 209.915 C 30.261 210.666,30.060 211.468,29.622 212.467 C 29.175 213.484,28.982 214.266,28.980 215.060 C 28.979 215.868,28.810 216.534,28.394 217.368 L 27.810 218.540 27.810 231.007 L 27.810 243.474 28.394 244.646 C 28.810 245.479,28.979 246.146,28.980 246.954 C 28.982 247.748,29.175 248.530,29.622 249.547 C 30.078 250.587,30.261 251.339,30.261 252.177 C 30.261 253.165,30.446 253.732,31.434 255.764 C 32.080 257.092,32.688 258.609,32.787 259.137 C 33.026 260.417,36.678 267.821,37.635 268.966 C 38.052 269.465,38.637 270.358,38.936 270.951 C 39.235 271.545,39.800 272.387,40.192 272.823 C 40.583 273.259,41.185 274.170,41.529 274.847 C 42.251 276.269,49.987 284.310,51.006 284.697 C 54.377 285.979,57.956 283.351,58.016 279.551 C 58.062 276.648,58.076 276.674,54.449 272.989 C 52.169 270.671,51.024 269.336,50.612 268.514 C 50.289 267.869,49.371 266.652,48.572 265.808 C 47.494 264.670,47.082 264.066,46.971 263.464 C 46.706 262.030,46.271 261.047,45.502 260.149 C 44.594 259.088,43.154 256.150,42.978 255.000 C 42.907 254.542,42.355 253.151,41.749 251.910 C 40.837 250.038,40.631 249.400,40.541 248.162 C 40.471 247.187,40.255 246.316,39.920 245.647 C 39.527 244.864,39.367 244.092,39.239 242.344 C 39.107 240.557,38.959 239.856,38.555 239.105 L 38.039 238.146 38.039 230.474 L 38.039 222.802 38.597 221.417 C 38.904 220.655,39.222 219.416,39.305 218.662 C 39.387 217.909,39.654 216.902,39.898 216.425 C 40.151 215.929,40.411 214.859,40.505 213.930 C 40.598 213.012,40.867 211.898,41.124 211.373 C 41.374 210.861,41.671 209.963,41.785 209.377 C 41.898 208.791,42.466 207.352,43.047 206.180 C 43.628 205.008,44.203 203.526,44.324 202.888 C 44.482 202.055,44.774 201.452,45.356 200.757 C 45.803 200.223,46.441 199.282,46.774 198.665 C 47.108 198.048,47.685 197.185,48.057 196.747 C 48.429 196.309,48.993 195.430,49.311 194.792 C 49.629 194.155,50.211 193.277,50.605 192.841 C 50.999 192.406,51.518 191.602,51.760 191.055 C 52.054 190.391,53.082 189.163,54.855 187.357 C 57.771 184.387,58.006 183.992,58.000 182.062 C 57.991 178.421,52.982 175.680,49.547 177.435 M344.939 177.440 C 342.925 178.531,341.824 180.441,341.824 182.845 C 341.824 185.328,341.964 185.567,345.479 189.110 C 347.774 191.423,348.851 192.676,349.305 193.565 C 349.653 194.246,350.601 195.518,351.412 196.392 C 352.507 197.573,352.920 198.186,353.019 198.777 C 353.270 200.273,353.582 200.979,354.423 201.950 C 355.482 203.174,356.394 204.967,356.849 206.723 C 357.043 207.472,357.668 209.046,358.238 210.222 C 359.049 211.897,359.305 212.684,359.416 213.852 C 359.495 214.672,359.782 215.871,360.055 216.516 C 360.407 217.348,360.579 218.243,360.646 219.606 C 360.719 221.071,360.873 221.814,361.298 222.755 L 361.854 223.987 361.852 231.706 L 361.850 239.425 361.312 240.580 C 361.016 241.215,360.722 242.318,360.658 243.031 C 360.594 243.743,360.314 244.854,360.037 245.500 C 359.759 246.145,359.469 247.344,359.392 248.164 C 359.315 248.983,359.075 250.037,358.857 250.506 C 358.640 250.975,358.323 251.886,358.153 252.531 C 357.983 253.175,357.412 254.626,356.884 255.755 C 356.357 256.883,355.768 258.418,355.577 259.165 C 355.334 260.116,355.016 260.745,354.515 261.268 C 354.122 261.678,353.547 262.521,353.238 263.140 C 352.929 263.760,352.356 264.623,351.965 265.058 C 351.574 265.494,350.989 266.377,350.666 267.022 C 350.343 267.666,349.760 268.548,349.372 268.980 C 348.984 269.412,348.421 270.285,348.121 270.919 C 347.737 271.729,346.809 272.848,345.001 274.676 C 341.097 278.626,340.758 280.381,343.366 283.153 C 344.969 284.857,347.856 285.523,350.066 284.699 C 351.096 284.315,356.238 279.032,357.108 277.464 C 357.530 276.702,358.420 275.503,359.084 274.800 C 360.527 273.273,360.667 273.027,360.991 271.450 C 361.173 270.569,361.477 269.950,362.089 269.213 C 362.555 268.652,363.454 267.135,364.088 265.840 C 364.722 264.545,365.448 263.298,365.702 263.069 C 366.550 262.303,366.976 261.518,367.199 260.314 C 367.320 259.657,367.610 258.796,367.843 258.401 C 368.076 258.006,368.349 257.219,368.450 256.652 C 368.550 256.085,368.879 255.045,369.181 254.342 C 369.527 253.534,369.731 252.661,369.734 251.971 C 369.737 251.265,369.935 250.436,370.295 249.627 C 370.607 248.925,370.895 247.813,370.951 247.096 C 371.007 246.367,371.295 245.268,371.620 244.539 L 372.190 243.261 372.190 231.007 L 372.190 218.753 371.620 217.475 C 371.295 216.745,371.007 215.647,370.951 214.917 C 370.895 214.200,370.607 213.089,370.295 212.387 C 369.908 211.517,369.739 210.767,369.739 209.927 C 369.739 208.888,369.561 208.352,368.460 206.074 C 367.757 204.618,367.182 203.166,367.182 202.846 C 367.182 202.090,363.066 193.846,362.260 192.988 C 361.920 192.625,361.313 191.704,360.911 190.942 C 360.509 190.179,359.923 189.316,359.609 189.024 C 359.295 188.731,358.803 187.965,358.516 187.321 C 357.968 186.089,350.295 178.064,349.025 177.394 C 348.244 176.983,345.731 177.011,344.939 177.440 M67.463 193.817 C 66.307 194.229,61.444 199.091,60.485 200.793 C 60.095 201.485,59.414 202.501,58.972 203.050 C 58.093 204.143,54.800 210.695,54.220 212.506 C 54.020 213.129,53.668 214.166,53.436 214.811 C 53.205 215.456,52.887 216.750,52.731 217.688 C 52.574 218.625,52.249 219.897,52.009 220.514 C 51.593 221.581,51.570 222.090,51.551 230.956 L 51.531 240.277 52.052 241.662 C 52.339 242.424,52.641 243.651,52.724 244.389 C 52.806 245.127,53.066 246.178,53.300 246.726 C 53.535 247.273,53.825 248.178,53.945 248.736 C 54.256 250.189,56.942 255.504,57.957 256.678 C 58.430 257.224,58.817 257.804,58.817 257.967 C 58.817 258.129,59.285 258.880,59.857 259.636 C 60.429 260.392,61.173 261.523,61.509 262.149 C 63.491 265.840,65.943 267.324,69.857 267.200 C 73.441 267.087,74.222 266.292,74.208 262.770 C 74.198 260.132,74.064 259.839,71.860 257.605 C 70.789 256.519,69.690 255.156,69.259 254.378 C 68.849 253.638,68.243 252.712,67.913 252.321 C 67.072 251.327,65.735 248.583,65.460 247.288 C 65.333 246.691,64.745 245.213,64.154 244.004 C 63.153 241.956,63.079 241.697,63.077 240.189 C 63.074 238.949,62.926 238.150,62.440 236.761 C 61.508 234.097,61.459 226.482,62.360 224.343 C 62.779 223.349,62.943 222.534,63.013 221.097 C 63.065 220.043,63.212 218.892,63.341 218.540 C 63.884 217.058,67.206 210.595,67.778 209.909 C 68.120 209.499,68.741 208.531,69.158 207.759 C 69.651 206.845,70.583 205.691,71.826 204.456 C 74.043 202.251,74.216 201.863,74.196 199.132 C 74.166 195.062,70.995 192.559,67.463 193.817 M327.301 195.239 C 326.036 195.972,325.626 196.951,325.626 199.237 C 325.626 201.765,325.805 202.142,328.162 204.578 C 329.348 205.804,330.320 207.028,330.634 207.692 C 330.919 208.293,331.505 209.206,331.936 209.720 C 332.850 210.809,334.010 213.179,334.375 214.704 C 334.516 215.290,335.112 216.761,335.701 217.972 C 336.700 220.029,336.781 220.318,336.921 222.341 C 337.029 223.902,337.213 224.835,337.580 225.679 C 338.404 227.576,338.362 235.793,337.518 237.826 C 337.073 238.898,336.926 239.649,336.868 241.147 L 336.793 243.083 334.939 246.840 C 333.919 248.906,333.085 250.662,333.085 250.743 C 333.085 250.823,332.648 251.420,332.113 252.069 C 331.579 252.718,330.905 253.749,330.617 254.359 C 330.293 255.044,329.350 256.232,328.153 257.463 C 325.799 259.883,325.626 260.250,325.626 262.818 C 325.626 266.825,328.529 269.264,332.126 268.278 C 333.318 267.951,338.737 262.605,339.594 260.910 C 339.921 260.265,340.554 259.294,341.002 258.752 C 341.767 257.826,344.508 252.526,345.394 250.258 C 346.422 247.626,347.003 245.705,347.154 244.433 C 347.245 243.671,347.569 242.354,347.874 241.506 L 348.428 239.965 348.428 230.900 L 348.428 221.835 347.879 220.507 C 347.577 219.777,347.280 218.604,347.219 217.901 C 347.158 217.198,346.830 215.882,346.490 214.978 C 346.149 214.073,345.871 213.172,345.871 212.976 C 345.871 212.331,342.966 206.588,342.209 205.735 C 341.801 205.277,341.260 204.463,341.005 203.926 C 340.750 203.390,340.222 202.575,339.832 202.115 C 339.442 201.655,338.813 200.693,338.434 199.976 C 337.466 198.147,334.683 195.393,333.468 195.062 C 331.816 194.613,328.202 194.716,327.301 195.239 M82.752 210.155 C 81.676 210.397,79.670 212.425,78.997 213.953 C 78.764 214.484,78.196 215.346,77.736 215.871 C 76.768 216.975,75.499 219.580,75.219 221.041 C 75.113 221.595,74.807 222.458,74.540 222.958 C 73.767 224.406,73.787 236.097,74.566 237.720 C 74.878 238.371,75.136 239.407,75.229 240.384 C 75.505 243.274,76.436 244.811,80.222 248.618 L 83.431 251.845 84.710 251.972 C 88.180 252.316,90.570 249.981,90.570 246.244 C 90.570 243.985,90.357 243.480,88.571 241.501 C 87.485 240.298,86.856 239.303,85.739 237.025 L 84.304 234.097 84.340 230.989 C 84.374 228.157,84.425 227.778,84.914 226.727 C 85.210 226.092,85.453 225.429,85.455 225.253 C 85.463 224.398,85.984 223.243,86.770 222.335 C 87.248 221.783,87.806 220.943,88.010 220.468 C 88.214 219.994,88.743 219.174,89.186 218.647 C 92.935 214.188,88.844 208.789,82.752 210.155 M312.996 210.052 C 312.259 210.176,310.020 212.223,309.560 213.192 C 308.539 215.345,309.178 218.280,311.121 220.352 C 312.132 221.431,312.759 222.419,313.961 224.827 L 315.503 227.917 315.496 231.007 C 315.489 233.927,315.457 234.162,314.912 235.269 C 314.595 235.914,314.335 236.660,314.333 236.927 C 314.330 237.660,313.792 238.803,312.979 239.806 C 312.578 240.299,311.996 241.210,311.685 241.830 C 311.374 242.449,310.792 243.320,310.390 243.764 C 309.503 244.746,309.217 245.452,309.217 246.657 C 309.217 248.464,309.435 248.949,310.913 250.431 L 312.325 251.847 313.934 251.997 C 317.199 252.303,319.482 251.020,320.743 248.171 C 320.977 247.642,321.557 246.759,322.033 246.210 C 323.079 245.001,324.300 242.573,324.572 241.158 C 324.682 240.588,325.017 239.574,325.318 238.905 L 325.863 237.689 325.788 231.418 C 325.712 225.153,325.711 225.145,325.141 223.868 C 324.750 222.991,324.569 222.221,324.567 221.417 C 324.559 219.128,323.195 216.939,319.480 213.254 C 317.491 211.280,316.164 210.123,315.890 210.123 C 315.652 210.123,315.035 210.084,314.521 210.037 C 314.006 209.991,313.320 209.997,312.996 210.052 " stroke="none" fill="#7b92bf" fill-rule="evenodd"></path></g></svg>