<svg id="svg" version="1.1" xmlns="http://www.w3.org/2000/svg" xmlns:xlink="http://www.w3.org/1999/xlink" width="400" height="228.95622895622895" viewBox="0, 0, 400,228.95622895622895"><g id="svgg"><path id="path0" d="M190.326 85.423 C 189.844 85.931,190.006 86.860,190.729 87.738 C 191.108 88.198,191.481 88.887,191.557 89.270 C 191.634 89.652,191.937 90.123,192.231 90.316 C 192.547 90.522,192.828 90.997,192.918 91.473 C 193.001 91.916,193.223 92.365,193.411 92.470 C 193.764 92.668,194.729 94.219,195.496 95.821 C 195.737 96.325,196.151 96.932,196.417 97.169 C 196.683 97.407,196.964 97.941,197.041 98.356 C 197.119 98.770,197.322 99.163,197.492 99.228 C 197.662 99.293,197.975 99.687,198.189 100.103 C 198.402 100.518,198.819 101.150,199.116 101.506 C 199.413 101.862,199.657 102.378,199.657 102.653 C 199.657 102.928,199.871 103.287,200.133 103.450 C 200.396 103.614,200.811 104.201,201.056 104.755 C 201.301 105.309,201.603 105.825,201.727 105.902 C 201.851 105.979,202.097 106.386,202.273 106.807 C 202.449 107.228,202.805 107.785,203.065 108.045 C 203.325 108.305,203.605 108.803,203.688 109.153 C 203.770 109.502,204.050 110.021,204.308 110.306 C 204.878 110.933,205.673 112.215,206.260 113.452 C 206.499 113.955,206.912 114.562,207.178 114.800 C 207.444 115.037,207.725 115.571,207.803 115.986 C 207.881 116.401,208.083 116.793,208.253 116.858 C 208.423 116.924,208.735 117.317,208.947 117.733 C 209.158 118.149,209.523 118.672,209.757 118.896 C 209.992 119.120,210.253 119.583,210.338 119.926 C 210.423 120.269,210.775 120.910,211.119 121.351 C 211.463 121.792,211.820 122.410,211.911 122.725 C 212.003 123.039,212.271 123.481,212.507 123.707 C 212.743 123.932,212.936 124.201,212.936 124.305 C 212.936 124.409,213.239 124.874,213.608 125.338 C 213.977 125.803,214.344 126.479,214.424 126.841 C 214.503 127.203,214.800 127.651,215.083 127.837 C 215.366 128.022,215.724 128.596,215.879 129.113 C 216.034 129.629,216.263 130.052,216.388 130.052 C 216.514 130.052,216.804 130.491,217.035 131.028 C 217.265 131.565,217.611 132.135,217.803 132.295 C 217.996 132.455,218.284 132.917,218.443 133.322 C 218.603 133.727,218.963 134.316,219.244 134.631 C 219.524 134.946,219.832 135.461,219.926 135.776 C 220.021 136.090,220.296 136.606,220.537 136.920 C 221.911 138.714,222.443 139.643,222.649 140.614 C 222.720 140.947,222.975 141.268,223.220 141.332 C 223.499 141.405,223.770 141.802,223.950 142.403 C 224.107 142.929,224.412 143.453,224.628 143.568 C 224.843 143.683,225.083 144.034,225.162 144.349 C 225.241 144.663,225.713 145.361,226.211 145.900 L 227.116 146.880 237.599 146.949 C 249.288 147.025,249.840 146.974,250.347 145.760 C 250.511 145.369,250.815 144.907,251.023 144.734 C 251.232 144.562,251.402 144.288,251.402 144.126 C 251.402 143.965,251.763 143.401,252.204 142.873 C 252.645 142.346,253.005 141.782,253.005 141.621 C 253.005 141.459,253.167 141.192,253.365 141.028 C 253.563 140.863,253.923 140.341,254.165 139.867 C 254.407 139.393,254.863 138.746,255.179 138.431 C 255.495 138.115,255.753 137.712,255.753 137.535 C 255.753 137.357,256.062 136.823,256.440 136.348 C 256.817 135.873,257.127 135.359,257.127 135.207 C 257.127 135.055,257.341 134.737,257.603 134.499 C 257.866 134.262,258.217 133.740,258.385 133.339 C 258.552 132.938,258.912 132.387,259.185 132.114 C 259.458 131.841,259.787 131.317,259.915 130.949 C 260.043 130.581,260.276 130.280,260.433 130.280 C 260.589 130.280,260.835 129.888,260.979 129.408 C 261.123 128.928,261.499 128.292,261.816 127.994 C 262.133 127.697,262.393 127.316,262.393 127.150 C 262.393 126.983,262.593 126.645,262.838 126.400 C 263.084 126.155,263.459 125.614,263.672 125.198 C 263.885 124.782,264.303 124.151,264.600 123.795 C 264.897 123.439,265.140 123.013,265.140 122.850 C 265.140 122.686,265.302 122.417,265.500 122.253 C 265.699 122.088,266.073 121.535,266.332 121.023 C 266.591 120.511,266.945 120.009,267.118 119.907 C 267.292 119.806,267.586 119.359,267.772 118.914 C 267.958 118.469,268.370 117.797,268.686 117.420 C 269.003 117.044,269.262 116.608,269.262 116.452 C 269.262 116.295,269.519 115.943,269.834 115.670 C 270.149 115.396,270.406 115.025,270.406 114.844 C 270.406 114.664,270.649 114.226,270.945 113.870 C 271.241 113.514,271.665 112.836,271.887 112.364 C 272.109 111.892,272.385 111.505,272.501 111.505 C 272.617 111.505,272.916 111.068,273.166 110.532 C 273.685 109.417,274.512 108.168,275.180 107.490 C 275.433 107.233,275.707 106.755,275.789 106.427 C 275.871 106.099,276.239 105.543,276.607 105.191 C 276.975 104.839,277.275 104.377,277.275 104.164 C 277.275 103.951,277.437 103.642,277.636 103.478 C 277.834 103.313,278.208 102.760,278.467 102.248 C 278.726 101.736,279.083 101.232,279.260 101.129 C 279.437 101.026,279.744 100.536,279.942 100.041 C 280.140 99.546,280.399 99.141,280.519 99.141 C 280.638 99.141,280.941 98.678,281.191 98.111 C 281.442 97.544,281.747 97.081,281.869 97.081 C 281.991 97.081,282.267 96.694,282.483 96.222 C 282.698 95.750,283.109 95.072,283.395 94.716 C 283.681 94.360,283.915 93.942,283.915 93.786 C 283.915 93.630,284.224 93.207,284.602 92.845 C 284.980 92.483,285.289 92.000,285.289 91.772 C 285.289 91.543,285.499 91.147,285.755 90.891 C 286.011 90.635,286.434 90.016,286.695 89.515 C 286.956 89.014,287.287 88.528,287.431 88.435 C 287.869 88.152,289.029 85.712,288.857 85.434 C 288.744 85.252,286.961 85.175,282.842 85.175 L 276.987 85.175 276.044 86.023 C 275.525 86.490,274.976 87.159,274.825 87.511 C 274.674 87.863,274.450 88.151,274.328 88.151 C 274.205 88.151,273.986 88.511,273.841 88.952 C 273.696 89.392,273.386 89.886,273.153 90.049 C 272.920 90.212,272.595 90.651,272.432 91.023 C 272.268 91.395,271.972 91.855,271.773 92.044 C 271.574 92.232,271.281 92.710,271.121 93.104 C 270.962 93.499,270.581 94.039,270.275 94.305 C 269.970 94.571,269.720 94.936,269.720 95.116 C 269.720 95.297,269.478 95.635,269.182 95.868 C 268.886 96.100,268.523 96.659,268.374 97.110 C 268.225 97.561,267.849 98.168,267.538 98.461 C 267.227 98.753,266.972 99.113,266.972 99.260 C 266.972 99.408,266.755 99.725,266.490 99.965 C 266.224 100.204,265.851 100.790,265.661 101.266 C 265.470 101.742,265.129 102.231,264.902 102.352 C 264.675 102.473,264.371 102.934,264.225 103.375 C 264.079 103.817,263.867 104.179,263.753 104.179 C 263.639 104.179,263.291 104.681,262.980 105.295 C 262.668 105.909,262.255 106.472,262.060 106.547 C 261.865 106.622,261.706 106.833,261.706 107.016 C 261.706 107.199,261.447 107.657,261.130 108.033 C 260.814 108.409,260.406 109.061,260.223 109.482 C 260.041 109.902,259.630 110.489,259.311 110.785 C 258.991 111.082,258.729 111.452,258.729 111.608 C 258.729 111.765,258.527 112.075,258.280 112.299 C 258.033 112.523,257.719 113.045,257.581 113.461 C 257.444 113.876,257.080 114.381,256.771 114.583 C 256.463 114.785,256.211 115.138,256.211 115.368 C 256.211 115.597,256.023 115.954,255.794 116.161 C 255.566 116.369,255.146 117.003,254.863 117.571 C 254.579 118.139,254.246 118.603,254.122 118.603 C 253.999 118.603,253.750 118.957,253.569 119.389 C 253.389 119.821,253.135 120.240,253.005 120.320 C 252.876 120.401,252.566 120.866,252.316 121.355 C 252.067 121.843,251.605 122.501,251.289 122.817 C 250.974 123.133,250.716 123.534,250.716 123.709 C 250.716 123.884,250.524 124.201,250.289 124.413 C 250.055 124.625,249.679 125.208,249.453 125.708 C 249.228 126.208,248.958 126.617,248.854 126.617 C 248.749 126.617,248.460 127.016,248.211 127.505 C 247.315 129.261,244.768 128.593,244.763 126.600 C 244.763 126.401,244.505 125.997,244.190 125.701 C 243.875 125.405,243.618 125.041,243.618 124.891 C 243.618 124.742,243.316 124.239,242.946 123.775 C 242.577 123.310,242.210 122.635,242.131 122.274 C 242.052 121.913,241.846 121.564,241.675 121.498 C 241.503 121.432,241.181 120.986,240.959 120.506 C 240.737 120.026,240.317 119.342,240.026 118.986 C 239.735 118.630,239.496 118.232,239.496 118.101 C 239.496 117.970,239.187 117.510,238.809 117.080 C 238.432 116.650,238.122 116.104,238.122 115.867 C 238.122 115.193,237.875 114.711,237.529 114.711 C 237.355 114.711,237.052 114.326,236.855 113.855 C 236.659 113.385,236.304 112.792,236.068 112.539 C 235.831 112.285,235.566 111.789,235.478 111.435 C 235.390 111.082,235.077 110.634,234.781 110.440 C 234.462 110.231,234.181 109.758,234.091 109.280 C 234.008 108.836,233.696 108.260,233.398 108.001 C 233.100 107.742,232.856 107.402,232.856 107.246 C 232.856 107.089,232.596 106.652,232.278 106.274 C 231.960 105.896,231.580 105.244,231.434 104.825 C 231.289 104.407,230.934 103.879,230.647 103.654 C 230.361 103.428,230.057 102.879,229.974 102.433 C 229.890 101.988,229.676 101.567,229.498 101.499 C 229.319 101.431,228.979 100.994,228.742 100.529 C 228.505 100.064,228.154 99.553,227.962 99.394 C 227.770 99.235,227.496 98.747,227.351 98.310 C 227.207 97.873,226.848 97.255,226.553 96.937 C 226.257 96.618,225.950 96.057,225.869 95.690 C 225.789 95.323,225.590 94.945,225.428 94.850 C 225.266 94.754,224.954 94.326,224.735 93.897 C 224.515 93.468,224.137 92.903,223.894 92.642 C 223.650 92.381,223.390 91.907,223.316 91.590 C 223.242 91.273,222.946 90.756,222.659 90.441 C 222.372 90.126,221.979 89.482,221.785 89.010 C 221.590 88.537,221.333 88.151,221.213 88.151 C 221.093 88.151,220.886 87.839,220.753 87.457 C 220.563 86.912,220.186 86.610,219.006 86.058 L 217.500 85.353 204.056 85.237 C 193.124 85.143,190.559 85.178,190.326 85.423 M294.101 85.690 C 294.032 85.973,294.004 88.521,294.040 91.353 L 294.104 96.501 295.020 96.668 C 295.524 96.759,301.345 96.831,307.956 96.826 C 320.618 96.817,320.692 96.822,321.025 97.699 C 321.149 98.026,321.236 108.178,321.236 122.361 L 321.236 146.467 322.097 146.855 C 323.029 147.276,346.180 147.340,346.823 146.924 C 347.049 146.778,347.109 141.658,347.109 122.589 C 347.109 95.506,347.029 96.862,348.643 96.840 C 349.122 96.834,354.717 96.832,361.076 96.837 C 367.436 96.842,372.999 96.766,373.440 96.668 L 374.242 96.490 374.303 91.147 C 374.346 87.398,374.287 85.710,374.103 85.489 C 373.883 85.224,367.532 85.175,334.035 85.175 L 294.227 85.175 294.101 85.690 M42.702 85.882 C 41.442 86.110,39.462 86.398,38.301 86.522 C 36.783 86.683,36.061 86.867,35.730 87.175 C 35.477 87.411,34.746 87.738,34.107 87.902 C 33.464 88.067,32.823 88.394,32.673 88.634 C 32.525 88.872,32.281 89.067,32.133 89.067 C 31.799 89.067,29.994 90.777,29.994 91.093 C 29.994 91.220,29.745 91.519,29.441 91.758 C 29.137 91.998,28.769 92.638,28.622 93.182 C 28.476 93.726,28.141 94.461,27.879 94.817 C 27.142 95.813,27.041 98.289,27.030 115.627 C 27.018 134.470,27.105 136.877,27.845 137.966 C 28.133 138.392,28.493 139.151,28.643 139.654 C 28.794 140.156,29.159 140.795,29.456 141.074 C 29.752 141.352,29.994 141.677,29.994 141.795 C 29.994 142.070,31.756 143.789,32.038 143.789 C 32.154 143.789,32.540 144.028,32.896 144.320 C 33.556 144.861,34.432 145.249,35.531 145.488 C 35.868 145.562,36.301 145.779,36.493 145.970 C 37.517 146.994,44.213 147.223,73.154 147.222 C 101.533 147.221,101.768 147.213,102.020 146.210 C 102.215 145.432,102.037 137.087,101.818 136.749 C 101.672 136.523,96.711 136.463,78.281 136.463 C 54.068 136.463,53.578 136.445,53.578 135.576 C 53.578 135.473,53.319 135.090,53.003 134.724 L 52.428 134.058 52.488 116.622 L 52.547 99.186 53.264 98.191 C 54.468 96.518,52.685 96.630,78.090 96.626 C 97.595 96.623,101.182 96.573,101.559 96.298 C 101.967 96.000,102.009 95.620,102.075 91.678 C 102.159 86.692,102.120 86.454,101.139 85.855 C 100.039 85.185,46.417 85.210,42.702 85.882 M131.196 85.646 C 130.504 85.746,129.319 85.939,128.563 86.074 C 127.808 86.210,126.287 86.425,125.184 86.552 C 123.749 86.717,123.055 86.905,122.746 87.214 C 122.509 87.451,121.892 87.716,121.374 87.804 C 120.856 87.891,120.304 88.144,120.148 88.366 C 119.991 88.588,119.554 88.932,119.176 89.131 C 118.798 89.330,118.180 89.872,117.802 90.335 C 117.424 90.798,116.883 91.429,116.600 91.737 C 116.317 92.044,116.085 92.396,116.085 92.518 C 116.085 92.640,115.818 93.143,115.493 93.634 C 115.085 94.251,114.837 95.043,114.693 96.186 C 114.579 97.098,114.304 98.110,114.083 98.435 C 113.456 99.357,113.462 133.508,114.089 134.431 C 114.325 134.778,114.581 135.772,114.694 136.781 C 114.844 138.116,115.031 138.714,115.487 139.312 C 115.816 139.743,116.085 140.250,116.085 140.440 C 116.085 140.867,119.149 144.018,119.564 144.018 C 119.731 144.018,119.986 144.208,120.130 144.440 C 120.277 144.675,121.012 145.036,121.782 145.252 C 122.545 145.466,123.329 145.801,123.524 145.995 C 123.874 146.346,124.409 146.417,131.082 146.997 C 132.482 147.119,143.871 147.215,156.726 147.213 L 179.851 147.209 180.275 146.627 C 180.725 146.010,180.791 137.435,180.351 136.749 C 180.207 136.524,176.116 136.463,161.162 136.463 C 141.070 136.463,141.746 136.499,140.527 135.361 L 139.897 134.774 139.897 128.766 C 139.897 123.609,139.948 122.706,140.257 122.398 C 140.578 122.076,142.640 122.038,159.517 122.038 L 178.417 122.038 179.086 121.294 L 179.755 120.550 179.599 115.857 C 179.469 111.938,179.382 111.119,179.075 110.885 C 178.791 110.669,174.351 110.602,159.760 110.597 C 141.123 110.590,140.805 110.582,140.355 110.132 C 139.716 109.493,139.642 98.691,140.270 97.794 C 141.106 96.602,140.730 96.623,161.170 96.623 C 176.118 96.623,180.207 96.562,180.350 96.337 C 180.634 95.893,180.740 87.263,180.469 86.694 C 180.341 86.425,180.179 86.025,180.108 85.804 C 179.969 85.371,134.128 85.222,131.196 85.646 " stroke="none" fill="#075483" fill-rule="evenodd"></path><path id="path1" d="M0.000 114.482 L 0.000 228.964 200.000 228.964 L 400.000 228.964 400.000 114.482 L 400.000 0.000 200.000 0.000 L 0.000 0.000 0.000 114.482 M289.038 84.477 C 290.236 84.932,290.237 86.743,289.041 87.852 C 288.740 88.130,288.495 88.500,288.495 88.673 C 288.495 88.846,288.242 89.224,287.934 89.514 C 287.626 89.803,287.308 90.336,287.229 90.698 C 287.150 91.060,286.901 91.485,286.678 91.643 C 286.454 91.800,286.051 92.360,285.783 92.887 C 285.515 93.413,285.190 93.910,285.060 93.990 C 284.930 94.070,284.680 94.481,284.504 94.903 C 284.327 95.325,283.968 95.785,283.706 95.926 C 283.443 96.066,283.228 96.369,283.228 96.599 C 283.228 96.829,282.933 97.389,282.572 97.843 C 282.211 98.297,281.787 98.981,281.629 99.363 C 281.471 99.745,281.210 100.057,281.050 100.057 C 280.890 100.057,280.690 100.341,280.606 100.687 C 280.521 101.033,280.164 101.679,279.812 102.121 C 279.460 102.564,279.099 103.156,279.010 103.438 C 278.920 103.720,278.648 104.057,278.405 104.187 C 278.161 104.317,277.961 104.600,277.960 104.816 C 277.959 105.032,277.598 105.661,277.159 106.214 C 276.719 106.767,276.359 107.347,276.359 107.503 C 276.359 107.659,276.197 107.921,275.998 108.086 C 275.799 108.251,275.386 108.882,275.078 109.488 C 274.771 110.094,274.434 110.590,274.330 110.590 C 274.225 110.590,273.955 110.999,273.729 111.499 C 273.504 111.999,273.128 112.581,272.893 112.793 C 272.659 113.006,272.467 113.319,272.467 113.489 C 272.467 113.660,272.158 114.123,271.780 114.518 C 271.402 114.913,271.093 115.362,271.093 115.515 C 271.093 115.668,270.784 116.182,270.406 116.657 C 270.029 117.133,269.720 117.645,269.720 117.796 C 269.720 117.946,269.410 118.345,269.033 118.682 C 268.655 119.018,268.346 119.486,268.346 119.722 C 268.346 119.957,268.183 120.285,267.984 120.450 C 267.786 120.615,267.378 121.233,267.079 121.823 C 266.780 122.413,266.376 122.958,266.181 123.032 C 265.986 123.107,265.827 123.368,265.827 123.612 C 265.827 123.856,265.467 124.487,265.026 125.014 C 264.585 125.542,264.224 126.106,264.224 126.267 C 264.224 126.429,264.062 126.696,263.863 126.861 C 263.664 127.026,263.250 127.657,262.943 128.263 C 262.636 128.869,262.292 129.365,262.178 129.365 C 262.064 129.365,261.854 129.716,261.712 130.146 C 261.571 130.575,261.302 130.985,261.116 131.057 C 260.930 131.128,260.582 131.643,260.343 132.201 C 260.104 132.759,259.758 133.302,259.574 133.408 C 259.390 133.514,259.047 133.966,258.812 134.413 C 258.071 135.826,257.490 136.736,256.840 137.500 C 256.494 137.907,256.211 138.387,256.211 138.567 C 256.211 138.747,256.016 139.104,255.777 139.360 C 255.539 139.616,255.163 140.176,254.942 140.605 C 254.721 141.034,254.349 141.520,254.116 141.684 C 253.883 141.849,253.692 142.114,253.692 142.274 C 253.692 142.433,253.331 143.071,252.891 143.691 C 252.450 144.311,252.089 144.929,252.089 145.064 C 252.089 145.199,251.832 145.533,251.517 145.807 C 251.202 146.081,250.944 146.450,250.944 146.628 C 250.944 146.806,250.458 147.274,249.862 147.668 L 248.780 148.385 237.880 148.320 L 226.980 148.254 225.922 147.246 C 225.340 146.691,224.706 145.841,224.512 145.357 C 224.318 144.873,224.064 144.476,223.948 144.476 C 223.831 144.476,223.560 144.018,223.346 143.457 C 223.132 142.897,222.767 142.266,222.535 142.056 C 222.302 141.845,221.997 141.325,221.857 140.900 C 221.716 140.474,221.509 140.126,221.395 140.126 C 221.281 140.126,220.969 139.688,220.700 139.153 C 220.431 138.618,220.029 137.974,219.806 137.722 C 219.583 137.470,219.325 137.006,219.233 136.691 C 219.141 136.377,218.877 135.912,218.645 135.658 C 218.414 135.404,218.064 134.812,217.867 134.341 C 217.670 133.871,217.413 133.486,217.294 133.486 C 217.176 133.486,216.863 132.998,216.599 132.401 C 216.336 131.805,215.930 131.109,215.699 130.856 C 215.468 130.602,215.203 130.145,215.110 129.839 C 215.017 129.534,214.696 129.020,214.396 128.697 C 214.097 128.374,213.852 127.988,213.852 127.839 C 213.852 127.690,213.609 127.277,213.311 126.921 C 213.014 126.565,212.700 126.051,212.615 125.779 C 212.530 125.506,212.155 124.900,211.783 124.431 C 211.410 123.961,211.105 123.452,211.105 123.299 C 211.105 123.146,210.856 122.752,210.553 122.425 C 210.249 122.097,209.930 121.509,209.844 121.117 C 209.758 120.725,209.536 120.346,209.349 120.274 C 209.163 120.203,208.767 119.592,208.468 118.916 C 208.169 118.240,207.828 117.687,207.711 117.687 C 207.593 117.687,207.362 117.353,207.197 116.943 C 207.032 116.534,206.608 115.841,206.254 115.403 C 205.899 114.965,205.610 114.440,205.610 114.236 C 205.610 114.033,205.413 113.688,205.173 113.471 C 204.932 113.253,204.601 112.748,204.436 112.347 C 204.271 111.947,203.901 111.383,203.614 111.094 C 203.326 110.805,203.091 110.383,203.091 110.157 C 203.091 109.930,202.884 109.558,202.631 109.329 C 202.146 108.889,201.488 107.716,201.488 107.290 C 201.488 107.150,201.282 106.908,201.030 106.750 C 200.778 106.593,200.572 106.322,200.572 106.149 C 200.572 105.975,200.235 105.332,199.822 104.719 C 199.409 104.107,198.947 103.323,198.796 102.977 C 198.645 102.630,198.425 102.347,198.307 102.347 C 198.188 102.347,197.913 101.878,197.694 101.306 C 197.475 100.733,197.106 100.163,196.874 100.038 C 196.641 99.914,196.451 99.624,196.451 99.394 C 196.451 99.164,196.135 98.577,195.748 98.091 C 195.361 97.604,194.989 96.927,194.921 96.586 C 194.853 96.244,194.651 95.909,194.473 95.841 C 194.295 95.773,193.941 95.232,193.687 94.639 C 193.433 94.046,193.024 93.419,192.777 93.247 C 192.531 93.075,192.330 92.748,192.330 92.522 C 192.330 92.296,192.080 91.841,191.775 91.511 C 191.469 91.182,191.088 90.549,190.927 90.104 C 190.766 89.660,190.548 89.296,190.442 89.296 C 190.168 89.296,188.895 86.380,188.895 85.752 C 188.895 84.476,188.758 84.488,204.213 84.488 C 218.219 84.488,219.330 84.541,219.925 85.242 C 220.054 85.394,220.363 85.631,220.612 85.768 C 220.861 85.906,221.202 86.299,221.370 86.641 C 221.539 86.984,221.817 87.319,221.989 87.385 C 222.161 87.451,222.425 87.877,222.575 88.331 C 222.725 88.786,223.090 89.419,223.387 89.740 C 223.684 90.060,223.927 90.437,223.927 90.579 C 223.927 90.720,224.238 91.228,224.619 91.707 C 224.999 92.186,225.373 92.827,225.450 93.131 C 225.526 93.436,225.833 93.929,226.132 94.227 C 226.430 94.526,226.674 94.885,226.674 95.025 C 226.674 95.165,226.931 95.617,227.246 96.029 C 227.560 96.441,227.931 97.104,228.070 97.502 C 228.208 97.900,228.416 98.226,228.531 98.226 C 228.647 98.226,228.971 98.715,229.253 99.313 C 229.535 99.911,229.934 100.527,230.140 100.682 C 230.346 100.836,230.585 101.243,230.671 101.585 C 230.757 101.927,231.129 102.552,231.498 102.972 C 231.867 103.393,232.169 103.934,232.169 104.175 C 232.169 104.416,232.311 104.696,232.483 104.797 C 232.656 104.898,233.020 105.422,233.294 105.963 C 233.567 106.503,233.993 107.147,234.240 107.394 C 234.486 107.640,234.688 107.989,234.688 108.168 C 234.688 108.347,234.947 108.802,235.264 109.178 C 235.580 109.554,235.994 110.232,236.183 110.684 C 236.371 111.136,236.614 111.505,236.721 111.505 C 236.828 111.505,237.088 111.956,237.298 112.508 C 237.509 113.059,237.880 113.690,238.122 113.909 C 238.365 114.129,238.678 114.657,238.819 115.082 C 238.959 115.508,239.167 115.856,239.281 115.856 C 239.395 115.856,239.740 116.352,240.047 116.958 C 240.354 117.564,240.761 118.189,240.952 118.347 C 241.143 118.506,241.362 118.924,241.440 119.277 C 241.517 119.631,241.828 120.152,242.129 120.435 C 242.431 120.719,242.745 121.254,242.826 121.624 C 242.907 121.995,243.122 122.354,243.302 122.424 C 243.483 122.493,243.839 123.006,244.093 123.564 C 244.347 124.121,244.745 124.768,244.979 125.002 C 245.212 125.235,245.469 125.725,245.549 126.091 C 245.673 126.656,246.938 127.773,247.143 127.498 C 247.175 127.454,247.331 127.094,247.489 126.697 C 247.647 126.300,248.025 125.741,248.330 125.455 C 248.635 125.169,248.884 124.793,248.884 124.621 C 248.884 124.448,249.116 124.073,249.399 123.787 C 249.682 123.502,250.097 122.914,250.320 122.481 C 250.837 121.479,251.697 120.222,252.269 119.634 C 252.514 119.382,252.793 118.924,252.889 118.617 C 252.985 118.309,253.359 117.743,253.720 117.357 C 254.081 116.972,254.377 116.528,254.378 116.371 C 254.378 116.214,254.581 115.883,254.827 115.636 C 255.074 115.390,255.488 114.771,255.748 114.263 C 256.008 113.754,256.310 113.337,256.419 113.337 C 256.529 113.337,256.781 112.932,256.979 112.437 C 257.177 111.942,257.482 111.453,257.658 111.350 C 257.833 111.246,258.157 110.776,258.379 110.303 C 258.600 109.831,258.871 109.445,258.980 109.445 C 259.089 109.445,259.399 109.007,259.670 108.472 C 259.941 107.936,260.304 107.416,260.476 107.315 C 260.649 107.215,260.790 106.991,260.790 106.818 C 260.790 106.645,261.126 106.058,261.536 105.513 C 261.946 104.968,262.408 104.239,262.562 103.892 C 262.715 103.546,262.941 103.263,263.064 103.263 C 263.187 103.263,263.483 102.825,263.723 102.290 C 263.962 101.754,264.379 101.120,264.649 100.880 C 264.919 100.640,265.140 100.318,265.140 100.164 C 265.140 100.010,265.302 99.750,265.500 99.585 C 265.699 99.421,266.063 98.889,266.311 98.403 C 266.559 97.917,266.964 97.318,267.210 97.071 C 267.457 96.825,267.659 96.486,267.659 96.319 C 267.659 96.152,267.925 95.766,268.251 95.461 C 268.577 95.155,268.990 94.596,269.169 94.219 C 269.564 93.385,270.423 92.116,271.072 91.406 C 271.336 91.118,271.551 90.741,271.551 90.569 C 271.551 90.396,271.912 89.823,272.353 89.296 C 272.793 88.768,273.154 88.211,273.154 88.056 C 273.154 87.902,273.412 87.552,273.726 87.278 C 274.041 87.004,274.299 86.633,274.299 86.453 C 274.299 85.936,276.111 84.522,276.901 84.422 C 278.455 84.227,288.499 84.272,289.038 84.477 M374.215 84.477 C 375.465 84.953,375.559 85.410,375.556 90.986 C 375.553 96.388,375.453 96.945,374.400 97.461 C 374.187 97.565,368.449 97.707,361.649 97.776 C 351.261 97.882,348.774 97.980,348.201 98.309 C 348.172 98.326,348.094 109.380,348.029 122.872 C 347.915 146.586,347.896 147.421,347.475 147.887 C 347.040 148.367,323.205 148.675,321.513 148.222 C 320.282 147.892,320.322 148.724,320.298 122.908 C 320.285 109.773,320.203 98.769,320.116 98.454 L 319.957 97.882 307.145 97.767 C 300.098 97.704,294.154 97.565,293.935 97.458 C 293.203 97.099,293.032 95.627,293.124 90.461 C 293.216 85.281,293.293 84.801,294.079 84.483 C 294.762 84.207,373.488 84.201,374.215 84.477 M101.594 84.728 C 102.708 85.116,102.805 85.637,102.805 91.228 C 102.805 95.923,102.769 96.387,102.367 96.884 L 101.930 97.424 78.727 97.480 C 54.075 97.540,54.736 97.508,54.293 98.657 C 53.757 100.045,53.862 134.060,54.404 134.785 L 54.886 135.432 78.521 135.547 C 101.583 135.658,102.163 135.672,102.480 136.106 C 102.738 136.458,102.805 137.610,102.805 141.669 C 102.805 147.193,102.658 147.997,101.599 148.260 C 100.010 148.653,40.399 148.249,39.304 147.837 C 38.695 147.608,37.576 147.321,36.817 147.199 C 36.042 147.074,35.076 146.730,34.609 146.413 C 34.153 146.104,33.594 145.850,33.365 145.850 C 33.137 145.850,32.718 145.618,32.434 145.335 C 32.151 145.052,31.630 144.688,31.277 144.528 C 30.924 144.368,30.585 144.042,30.523 143.805 C 30.461 143.568,30.215 143.323,29.976 143.260 C 29.737 143.198,29.444 142.905,29.324 142.609 C 29.203 142.314,28.842 141.829,28.519 141.533 C 28.197 141.236,27.934 140.830,27.934 140.629 C 27.934 140.429,27.686 139.899,27.384 139.451 C 27.060 138.970,26.727 137.983,26.571 137.035 C 26.425 136.153,26.157 134.924,25.975 134.303 C 25.401 132.346,25.503 100.057,26.089 97.852 C 26.328 96.954,26.594 95.749,26.680 95.173 C 26.767 94.598,27.084 93.793,27.385 93.384 C 27.687 92.976,27.934 92.495,27.934 92.317 C 27.934 91.684,30.907 88.380,31.477 88.380 C 31.669 88.380,31.826 88.242,31.826 88.073 C 31.826 87.757,32.749 87.235,33.307 87.235 C 33.481 87.235,33.919 86.986,34.281 86.681 C 34.687 86.339,35.480 86.029,36.352 85.871 C 37.130 85.730,38.132 85.462,38.579 85.275 C 39.026 85.088,40.292 84.848,41.391 84.742 C 44.439 84.448,100.753 84.435,101.594 84.728 M180.810 84.935 C 181.855 85.572,182.028 86.490,181.998 91.242 C 181.966 96.344,181.913 96.622,180.882 97.138 C 180.138 97.509,178.707 97.538,161.019 97.538 C 150.535 97.538,141.958 97.627,141.958 97.734 C 141.958 97.842,141.674 98.228,141.328 98.593 L 140.698 99.256 140.624 103.925 C 140.565 107.616,140.613 108.635,140.853 108.787 C 141.020 108.893,149.571 108.981,159.856 108.983 L 178.556 108.987 179.547 109.742 L 180.538 110.497 180.718 114.493 C 180.913 118.832,180.821 121.296,180.435 122.016 C 179.956 122.912,179.095 122.951,159.752 122.952 C 142.134 122.954,141.018 122.977,140.867 123.354 C 140.779 123.575,140.705 126.022,140.702 128.792 L 140.698 133.829 141.516 134.688 L 142.334 135.547 161.321 135.548 C 182.824 135.548,181.569 135.442,181.875 137.297 C 182.517 141.181,181.939 147.236,180.855 147.995 C 179.721 148.789,127.088 148.492,126.045 147.686 C 125.919 147.589,125.094 147.388,124.213 147.239 C 123.320 147.089,122.251 146.734,121.800 146.438 C 121.355 146.147,120.660 145.835,120.256 145.746 C 119.852 145.658,119.437 145.433,119.333 145.247 C 119.229 145.061,118.779 144.683,118.334 144.407 C 117.459 143.863,115.398 141.640,115.398 141.239 C 115.398 141.104,115.155 140.705,114.858 140.352 C 114.561 139.999,114.249 139.279,114.165 138.752 C 114.081 138.225,113.783 137.366,113.503 136.842 L 112.994 135.890 112.994 116.428 L 112.994 96.966 113.503 96.014 C 113.783 95.490,114.082 94.625,114.167 94.090 C 114.253 93.556,114.511 92.931,114.740 92.701 C 114.970 92.471,115.307 91.946,115.488 91.534 C 116.087 90.172,118.950 87.605,120.195 87.313 C 120.516 87.238,121.036 86.940,121.351 86.651 C 121.722 86.310,122.446 86.035,123.412 85.867 C 124.230 85.725,125.217 85.464,125.605 85.285 C 127.593 84.371,179.347 84.043,180.810 84.935 " stroke="none" fill="#fbfbfb" fill-rule="evenodd"></path><path id="path2" d="M276.901 84.422 C 276.111 84.522,274.299 85.936,274.299 86.453 C 274.299 86.633,274.041 87.004,273.726 87.278 C 273.412 87.552,273.154 87.902,273.154 88.056 C 273.154 88.211,272.793 88.768,272.353 89.296 C 271.912 89.823,271.551 90.396,271.551 90.569 C 271.551 90.741,271.336 91.118,271.072 91.406 C 270.423 92.116,269.564 93.385,269.169 94.219 C 268.990 94.596,268.577 95.155,268.251 95.461 C 267.925 95.766,267.659 96.152,267.659 96.319 C 267.659 96.486,267.457 96.825,267.210 97.071 C 266.964 97.318,266.559 97.917,266.311 98.403 C 266.063 98.889,265.699 99.421,265.500 99.585 C 265.302 99.750,265.140 100.010,265.140 100.164 C 265.140 100.318,264.919 100.640,264.649 100.880 C 264.379 101.120,263.962 101.754,263.723 102.290 C 263.483 102.825,263.187 103.263,263.064 103.263 C 262.941 103.263,262.715 103.546,262.562 103.892 C 262.408 104.239,261.946 104.968,261.536 105.513 C 261.126 106.058,260.790 106.645,260.790 106.818 C 260.790 106.991,260.649 107.215,260.476 107.315 C 260.304 107.416,259.941 107.936,259.670 108.472 C 259.399 109.007,259.089 109.445,258.980 109.445 C 258.871 109.445,258.600 109.831,258.379 110.303 C 258.157 110.776,257.833 111.246,257.658 111.350 C 257.482 111.453,257.177 111.942,256.979 112.437 C 256.781 112.932,256.529 113.337,256.419 113.337 C 256.310 113.337,256.008 113.754,255.748 114.263 C 255.488 114.771,255.074 115.390,254.827 115.636 C 254.581 115.883,254.378 116.214,254.378 116.371 C 254.377 116.528,254.081 116.972,253.720 117.357 C 253.359 117.743,252.985 118.309,252.889 118.617 C 252.793 118.924,252.514 119.382,252.269 119.634 C 251.697 120.222,250.837 121.479,250.320 122.481 C 250.097 122.914,249.682 123.502,249.399 123.787 C 249.116 124.073,248.884 124.448,248.884 124.621 C 248.884 124.793,248.635 125.169,248.330 125.455 C 248.025 125.741,247.647 126.300,247.489 126.697 C 247.331 127.094,247.175 127.454,247.143 127.498 C 246.938 127.773,245.673 126.656,245.549 126.091 C 245.469 125.725,245.212 125.235,244.979 125.002 C 244.745 124.768,244.347 124.121,244.093 123.564 C 243.839 123.006,243.483 122.493,243.302 122.424 C 243.122 122.354,242.907 121.995,242.826 121.624 C 242.745 121.254,242.431 120.719,242.129 120.435 C 241.828 120.152,241.517 119.631,241.440 119.277 C 241.362 118.924,241.143 118.506,240.952 118.347 C 240.761 118.189,240.354 117.564,240.047 116.958 C 239.740 116.352,239.395 115.856,239.281 115.856 C 239.167 115.856,238.959 115.508,238.819 115.082 C 238.678 114.657,238.365 114.129,238.122 113.909 C 237.880 113.690,237.509 113.059,237.298 112.508 C 237.088 111.956,236.828 111.505,236.721 111.505 C 236.614 111.505,236.371 111.136,236.183 110.684 C 235.994 110.232,235.580 109.554,235.264 109.178 C 234.947 108.802,234.688 108.347,234.688 108.168 C 234.688 107.989,234.486 107.640,234.240 107.394 C 233.993 107.147,233.567 106.503,233.294 105.963 C 233.020 105.422,232.656 104.898,232.483 104.797 C 232.311 104.696,232.169 104.416,232.169 104.175 C 232.169 103.934,231.867 103.393,231.498 102.972 C 231.129 102.552,230.757 101.927,230.671 101.585 C 230.585 101.243,230.346 100.836,230.140 100.682 C 229.934 100.527,229.535 99.911,229.253 99.313 C 228.971 98.715,228.647 98.226,228.531 98.226 C 228.416 98.226,228.208 97.900,228.070 97.502 C 227.931 97.104,227.560 96.441,227.246 96.029 C 226.931 95.617,226.674 95.165,226.674 95.025 C 226.674 94.885,226.430 94.526,226.132 94.227 C 225.833 93.929,225.526 93.436,225.450 93.131 C 225.373 92.827,224.999 92.186,224.619 91.707 C 224.238 91.228,223.927 90.720,223.927 90.579 C 223.927 90.437,223.684 90.060,223.387 89.740 C 223.090 89.419,222.725 88.786,222.575 88.331 C 222.425 87.877,222.161 87.451,221.989 87.385 C 221.817 87.319,221.539 86.984,221.370 86.641 C 221.202 86.299,220.861 85.906,220.612 85.768 C 220.363 85.631,220.054 85.394,219.925 85.242 C 219.330 84.541,218.219 84.488,204.213 84.488 C 188.758 84.488,188.895 84.476,188.895 85.752 C 188.895 86.380,190.168 89.296,190.442 89.296 C 190.548 89.296,190.766 89.660,190.927 90.104 C 191.088 90.549,191.469 91.182,191.775 91.511 C 192.080 91.841,192.330 92.296,192.330 92.522 C 192.330 92.748,192.531 93.075,192.777 93.247 C 193.024 93.419,193.433 94.046,193.687 94.639 C 193.941 95.232,194.295 95.773,194.473 95.841 C 194.651 95.909,194.853 96.244,194.921 96.586 C 194.989 96.927,195.361 97.604,195.748 98.091 C 196.135 98.577,196.451 99.164,196.451 99.394 C 196.451 99.624,196.641 99.914,196.874 100.038 C 197.106 100.163,197.475 100.733,197.694 101.306 C 197.913 101.878,198.188 102.347,198.307 102.347 C 198.425 102.347,198.645 102.630,198.796 102.977 C 198.947 103.323,199.409 104.107,199.822 104.719 C 200.235 105.332,200.572 105.975,200.572 106.149 C 200.572 106.322,200.778 106.593,201.030 106.750 C 201.282 106.908,201.488 107.150,201.488 107.290 C 201.488 107.716,202.146 108.889,202.631 109.329 C 202.884 109.558,203.091 109.930,203.091 110.157 C 203.091 110.383,203.326 110.805,203.614 111.094 C 203.901 111.383,204.271 111.947,204.436 112.347 C 204.601 112.748,204.932 113.253,205.173 113.471 C 205.413 113.688,205.610 114.033,205.610 114.236 C 205.610 114.440,205.899 114.965,206.254 115.403 C 206.608 115.841,207.032 116.534,207.197 116.943 C 207.362 117.353,207.593 117.687,207.711 117.687 C 207.828 117.687,208.169 118.240,208.468 118.916 C 208.767 119.592,209.163 120.203,209.349 120.274 C 209.536 120.346,209.758 120.725,209.844 121.117 C 209.930 121.509,210.249 122.097,210.553 122.425 C 210.856 122.752,211.105 123.146,211.105 123.299 C 211.105 123.452,211.410 123.961,211.783 124.431 C 212.155 124.900,212.530 125.506,212.615 125.779 C 212.700 126.051,213.014 126.565,213.311 126.921 C 213.609 127.277,213.852 127.690,213.852 127.839 C 213.852 127.988,214.097 128.374,214.396 128.697 C 214.696 129.020,215.017 129.534,215.110 129.839 C 215.203 130.145,215.468 130.602,215.699 130.856 C 215.930 131.109,216.336 131.805,216.599 132.401 C 216.863 132.998,217.176 133.486,217.294 133.486 C 217.413 133.486,217.670 133.871,217.867 134.341 C 218.064 134.812,218.414 135.404,218.645 135.658 C 218.877 135.912,219.141 136.377,219.233 136.691 C 219.325 137.006,219.583 137.470,219.806 137.722 C 220.029 137.974,220.431 138.618,220.700 139.153 C 220.969 139.688,221.281 140.126,221.395 140.126 C 221.509 140.126,221.716 140.474,221.857 140.900 C 221.997 141.325,222.302 141.845,222.535 142.056 C 222.767 142.266,223.132 142.897,223.346 143.457 C 223.560 144.018,223.831 144.476,223.948 144.476 C 224.064 144.476,224.318 144.873,224.512 145.357 C 224.706 145.841,225.340 146.691,225.922 147.246 L 226.980 148.254 237.880 148.320 L 248.780 148.385 249.862 147.668 C 250.458 147.274,250.944 146.806,250.944 146.628 C 250.944 146.450,251.202 146.081,251.517 145.807 C 251.832 145.533,252.089 145.199,252.089 145.064 C 252.089 144.929,252.450 144.311,252.891 143.691 C 253.331 143.071,253.692 142.433,253.692 142.274 C 253.692 142.114,253.883 141.849,254.116 141.684 C 254.349 141.520,254.721 141.034,254.942 140.605 C 255.163 140.176,255.539 139.616,255.777 139.360 C 256.016 139.104,256.211 138.747,256.211 138.567 C 256.211 138.387,256.494 137.907,256.840 137.500 C 257.490 136.736,258.071 135.826,258.812 134.413 C 259.047 133.966,259.390 133.514,259.574 133.408 C 259.758 133.302,260.104 132.759,260.343 132.201 C 260.582 131.643,260.930 131.128,261.116 131.057 C 261.302 130.985,261.571 130.575,261.712 130.146 C 261.854 129.716,262.064 129.365,262.178 129.365 C 262.292 129.365,262.636 128.869,262.943 128.263 C 263.250 127.657,263.664 127.026,263.863 126.861 C 264.062 126.696,264.224 126.429,264.224 126.267 C 264.224 126.106,264.585 125.542,265.026 125.014 C 265.467 124.487,265.827 123.856,265.827 123.612 C 265.827 123.368,265.986 123.107,266.181 123.032 C 266.376 122.958,266.780 122.413,267.079 121.823 C 267.378 121.233,267.786 120.615,267.984 120.450 C 268.183 120.285,268.346 119.957,268.346 119.722 C 268.346 119.486,268.655 119.018,269.033 118.682 C 269.410 118.345,269.720 117.946,269.720 117.796 C 269.720 117.645,270.029 117.133,270.406 116.657 C 270.784 116.182,271.093 115.668,271.093 115.515 C 271.093 115.362,271.402 114.913,271.780 114.518 C 272.158 114.123,272.467 113.660,272.467 113.489 C 272.467 113.319,272.659 113.006,272.893 112.793 C 273.128 112.581,273.504 111.999,273.729 111.499 C 273.955 110.999,274.225 110.590,274.330 110.590 C 274.434 110.590,274.771 110.094,275.078 109.488 C 275.386 108.882,275.799 108.251,275.998 108.086 C 276.197 107.921,276.359 107.659,276.359 107.503 C 276.359 107.347,276.719 106.767,277.159 106.214 C 277.598 105.661,277.959 105.032,277.960 104.816 C 277.961 104.600,278.161 104.317,278.405 104.187 C 278.648 104.057,278.920 103.720,279.010 103.438 C 279.099 103.156,279.460 102.564,279.812 102.121 C 280.164 101.679,280.521 101.033,280.606 100.687 C 280.690 100.341,280.890 100.057,281.050 100.057 C 281.210 100.057,281.471 99.745,281.629 99.363 C 281.787 98.981,282.211 98.297,282.572 97.843 C 282.933 97.389,283.228 96.829,283.228 96.599 C 283.228 96.369,283.443 96.066,283.706 95.926 C 283.968 95.785,284.327 95.325,284.504 94.903 C 284.680 94.481,284.930 94.070,285.060 93.990 C 285.190 93.910,285.515 93.413,285.783 92.887 C 286.051 92.360,286.454 91.800,286.678 91.643 C 286.901 91.485,287.150 91.060,287.229 90.698 C 287.308 90.336,287.626 89.803,287.934 89.514 C 288.242 89.224,288.495 88.846,288.495 88.673 C 288.495 88.500,288.740 88.130,289.041 87.852 C 290.237 86.743,290.236 84.932,289.038 84.477 C 288.499 84.272,278.455 84.227,276.901 84.422 M294.079 84.483 C 292.742 85.023,292.612 96.809,293.935 97.458 C 294.154 97.565,300.098 97.704,307.145 97.767 L 319.957 97.882 320.116 98.454 C 320.203 98.769,320.285 109.773,320.298 122.908 C 320.322 148.724,320.282 147.892,321.513 148.222 C 323.205 148.675,347.040 148.367,347.475 147.887 C 347.896 147.421,347.915 146.586,348.029 122.872 C 348.094 109.380,348.172 98.326,348.201 98.309 C 348.774 97.980,351.261 97.882,361.649 97.776 C 368.449 97.707,374.187 97.565,374.400 97.461 C 375.453 96.945,375.553 96.388,375.556 90.986 C 375.559 85.410,375.465 84.953,374.215 84.477 C 373.488 84.201,294.762 84.207,294.079 84.483 M41.391 84.742 C 40.292 84.848,39.026 85.088,38.579 85.275 C 38.132 85.462,37.130 85.730,36.352 85.871 C 35.480 86.029,34.687 86.339,34.281 86.681 C 33.919 86.986,33.481 87.235,33.307 87.235 C 32.749 87.235,31.826 87.757,31.826 88.073 C 31.826 88.242,31.669 88.380,31.477 88.380 C 30.907 88.380,27.934 91.684,27.934 92.317 C 27.934 92.495,27.687 92.976,27.385 93.384 C 27.084 93.793,26.767 94.598,26.680 95.173 C 26.594 95.749,26.328 96.954,26.089 97.852 C 25.503 100.057,25.401 132.346,25.975 134.303 C 26.157 134.924,26.425 136.153,26.571 137.035 C 26.727 137.983,27.060 138.970,27.384 139.451 C 27.686 139.899,27.934 140.429,27.934 140.629 C 27.934 140.830,28.197 141.236,28.519 141.533 C 28.842 141.829,29.203 142.314,29.324 142.609 C 29.444 142.905,29.737 143.198,29.976 143.260 C 30.215 143.323,30.461 143.568,30.523 143.805 C 30.585 144.042,30.924 144.368,31.277 144.528 C 31.630 144.688,32.151 145.052,32.434 145.335 C 32.718 145.618,33.137 145.850,33.365 145.850 C 33.594 145.850,34.153 146.104,34.609 146.413 C 35.076 146.730,36.042 147.074,36.817 147.199 C 37.576 147.321,38.695 147.608,39.304 147.837 C 40.399 148.249,100.010 148.653,101.599 148.260 C 102.658 147.997,102.805 147.193,102.805 141.669 C 102.805 137.610,102.738 136.458,102.480 136.106 C 102.163 135.672,101.583 135.658,78.521 135.547 L 54.886 135.432 54.404 134.785 C 53.862 134.060,53.757 100.045,54.293 98.657 C 54.736 97.508,54.075 97.540,78.727 97.480 L 101.930 97.424 102.367 96.884 C 102.769 96.387,102.805 95.923,102.805 91.228 C 102.805 85.637,102.708 85.116,101.594 84.728 C 100.753 84.435,44.439 84.448,41.391 84.742 M128.123 84.754 C 127.126 84.868,125.992 85.107,125.605 85.285 C 125.217 85.464,124.230 85.725,123.412 85.867 C 122.446 86.035,121.722 86.310,121.351 86.651 C 121.036 86.940,120.516 87.238,120.195 87.313 C 118.950 87.605,116.087 90.172,115.488 91.534 C 115.307 91.946,114.970 92.471,114.740 92.701 C 114.511 92.931,114.253 93.556,114.167 94.090 C 114.082 94.625,113.783 95.490,113.503 96.014 L 112.994 96.966 112.994 116.428 L 112.994 135.890 113.503 136.842 C 113.783 137.366,114.081 138.225,114.165 138.752 C 114.249 139.279,114.561 139.999,114.858 140.352 C 115.155 140.705,115.398 141.104,115.398 141.239 C 115.398 141.640,117.459 143.863,118.334 144.407 C 118.779 144.683,119.229 145.061,119.333 145.247 C 119.437 145.433,119.852 145.658,120.256 145.746 C 120.660 145.835,121.355 146.147,121.800 146.438 C 122.251 146.734,123.320 147.089,124.213 147.239 C 125.094 147.388,125.919 147.589,126.045 147.686 C 127.088 148.492,179.721 148.789,180.855 147.995 C 181.939 147.236,182.517 141.181,181.875 137.297 C 181.569 135.442,182.824 135.548,161.321 135.548 L 142.334 135.547 141.516 134.688 L 140.698 133.829 140.702 128.792 C 140.705 126.022,140.779 123.575,140.867 123.354 C 141.018 122.977,142.134 122.954,159.752 122.952 C 179.095 122.951,179.956 122.912,180.435 122.016 C 180.821 121.296,180.913 118.832,180.718 114.493 L 180.538 110.497 179.547 109.742 L 178.556 108.987 159.856 108.983 C 149.571 108.981,141.020 108.893,140.853 108.787 C 140.613 108.635,140.565 107.616,140.624 103.925 L 140.698 99.256 141.328 98.593 C 141.674 98.228,141.958 97.842,141.958 97.734 C 141.958 97.627,150.535 97.538,161.019 97.538 C 182.251 97.538,181.503 97.591,181.828 96.050 C 182.074 94.881,182.038 87.172,181.782 86.250 C 181.254 84.350,183.352 84.486,155.009 84.518 C 141.219 84.534,129.121 84.641,128.123 84.754 M288.952 85.020 C 289.870 85.496,289.474 86.659,287.521 89.220 C 287.175 89.674,286.892 90.170,286.892 90.322 C 286.892 90.474,286.675 90.795,286.409 91.035 C 286.144 91.275,285.772 91.857,285.583 92.330 C 285.394 92.802,285.149 93.188,285.039 93.188 C 284.929 93.188,284.578 93.703,284.259 94.333 C 283.940 94.963,283.585 95.478,283.471 95.478 C 283.357 95.478,283.143 95.846,282.994 96.295 C 282.846 96.745,282.588 97.165,282.421 97.229 C 282.254 97.293,281.902 97.802,281.640 98.360 C 281.378 98.918,281.001 99.554,280.802 99.773 C 280.604 99.992,279.988 100.893,279.435 101.774 C 278.881 102.656,278.325 103.500,278.199 103.650 C 278.073 103.800,277.750 104.315,277.482 104.795 C 277.213 105.274,276.917 105.718,276.823 105.781 C 276.729 105.844,276.469 106.256,276.245 106.697 C 276.021 107.138,275.594 107.790,275.297 108.146 C 275.000 108.502,274.757 108.907,274.757 109.047 C 274.757 109.187,274.560 109.513,274.321 109.773 C 274.081 110.033,273.694 110.565,273.462 110.956 C 273.023 111.693,272.695 112.202,271.404 114.155 C 270.981 114.794,270.635 115.433,270.635 115.575 C 270.635 115.717,270.493 115.915,270.320 116.016 C 270.146 116.117,269.811 116.560,269.575 117.001 C 269.339 117.441,268.960 118.060,268.732 118.374 C 268.505 118.689,267.552 120.132,266.617 121.580 C 265.681 123.028,264.814 124.367,264.690 124.556 C 264.133 125.409,262.636 127.751,261.983 128.792 C 261.588 129.422,261.052 130.246,260.792 130.624 C 260.531 131.002,259.863 132.032,259.306 132.914 C 258.749 133.795,258.134 134.680,257.939 134.879 C 257.744 135.078,257.584 135.319,257.584 135.413 C 257.584 135.595,256.206 137.798,255.494 138.752 C 255.260 139.067,254.848 139.737,254.579 140.240 C 254.310 140.744,253.949 141.239,253.777 141.339 C 253.604 141.440,253.463 141.632,253.463 141.767 C 253.463 141.901,253.102 142.502,252.662 143.102 C 252.221 143.703,251.860 144.264,251.860 144.349 C 251.860 144.911,250.036 147.017,249.280 147.327 C 248.279 147.738,228.335 147.866,227.288 147.468 C 226.549 147.187,225.340 145.920,224.940 145.007 C 224.764 144.606,224.504 144.207,224.362 144.119 C 224.220 144.031,223.911 143.522,223.674 142.989 C 223.438 142.455,223.083 141.884,222.886 141.720 C 222.688 141.556,222.388 141.091,222.220 140.688 C 222.051 140.284,221.448 139.245,220.880 138.380 C 220.311 137.514,219.664 136.420,219.440 135.947 C 219.217 135.475,218.962 135.089,218.875 135.089 C 218.788 135.089,218.582 134.754,218.418 134.345 C 218.254 133.935,217.829 133.262,217.474 132.848 C 217.119 132.435,216.829 131.953,216.829 131.778 C 216.829 131.603,216.585 131.169,216.288 130.813 C 215.990 130.457,215.677 129.943,215.592 129.671 C 215.507 129.399,215.132 128.792,214.759 128.323 C 214.386 127.854,214.078 127.355,214.075 127.215 C 214.071 127.075,213.762 126.556,213.388 126.061 C 213.014 125.566,212.707 125.038,212.707 124.887 C 212.707 124.736,212.545 124.478,212.346 124.313 C 212.147 124.148,211.727 123.543,211.411 122.968 C 210.610 121.509,209.708 119.978,209.102 119.049 C 208.819 118.615,208.587 118.147,208.587 118.009 C 208.587 117.871,208.376 117.569,208.120 117.336 C 207.863 117.104,207.468 116.496,207.241 115.984 C 207.014 115.473,206.658 114.913,206.448 114.740 C 206.239 114.567,206.068 114.328,206.068 114.209 C 206.068 114.090,205.758 113.543,205.381 112.994 C 205.003 112.445,204.694 111.893,204.694 111.768 C 204.694 111.643,204.450 111.249,204.153 110.893 C 203.668 110.314,203.196 109.527,202.203 107.640 C 202.029 107.310,201.699 106.833,201.470 106.580 C 201.240 106.326,200.882 105.708,200.673 105.206 C 200.465 104.704,200.146 104.139,199.965 103.950 C 199.566 103.533,198.086 101.059,197.807 100.343 C 197.697 100.060,197.516 99.828,197.404 99.828 C 197.292 99.828,196.956 99.313,196.658 98.683 C 196.359 98.054,196.046 97.539,195.964 97.539 C 195.881 97.539,195.644 97.152,195.435 96.680 C 195.227 96.208,194.654 95.203,194.162 94.448 C 193.109 92.831,191.905 90.885,191.393 89.975 C 191.193 89.619,190.833 89.037,190.593 88.682 C 189.579 87.184,189.285 85.706,189.900 85.196 C 190.134 85.002,193.977 84.949,204.496 84.996 L 218.775 85.060 219.751 85.749 C 220.701 86.420,222.553 88.842,222.553 89.413 C 222.553 89.570,222.716 89.833,222.914 89.998 C 223.113 90.163,223.532 90.768,223.845 91.342 C 224.158 91.917,224.640 92.750,224.915 93.195 C 225.190 93.639,225.621 94.346,225.873 94.765 C 226.125 95.185,226.612 95.955,226.956 96.476 C 227.300 96.998,227.584 97.510,227.586 97.616 C 227.588 97.721,227.899 98.262,228.277 98.818 C 228.655 99.374,229.273 100.283,229.651 100.839 C 230.029 101.395,230.338 101.947,230.338 102.067 C 230.338 102.186,230.647 102.673,231.025 103.148 C 231.402 103.624,231.714 104.127,231.718 104.267 C 231.721 104.407,232.030 104.927,232.405 105.421 C 232.779 105.916,233.085 106.441,233.085 106.588 C 233.085 106.736,233.302 107.104,233.566 107.406 C 233.830 107.709,234.301 108.420,234.611 108.987 C 235.223 110.104,235.883 111.198,236.691 112.435 C 236.973 112.868,237.205 113.312,237.206 113.421 C 237.206 113.531,237.516 113.972,237.894 114.402 C 238.271 114.833,238.580 115.304,238.580 115.451 C 238.580 115.699,238.844 116.138,240.408 118.489 C 240.743 118.993,241.151 119.740,241.315 120.149 C 241.479 120.558,241.701 120.893,241.810 120.893 C 241.918 120.893,242.273 121.382,242.597 121.981 C 243.856 124.299,244.303 125.032,244.753 125.515 C 245.010 125.791,245.220 126.192,245.220 126.406 C 245.220 126.976,245.931 127.721,246.633 127.887 C 247.196 128.020,247.336 127.889,248.402 126.237 C 249.038 125.250,249.736 124.203,249.952 123.911 C 250.169 123.618,250.455 123.196,250.588 122.973 C 251.270 121.827,253.289 118.839,253.905 118.063 C 254.292 117.578,254.608 117.070,254.608 116.937 C 254.608 116.803,254.785 116.498,255.001 116.259 C 255.217 116.020,255.603 115.479,255.859 115.057 C 256.666 113.727,258.672 110.732,259.227 110.031 C 259.520 109.660,259.889 109.093,260.048 108.771 C 260.206 108.449,260.590 107.825,260.900 107.384 C 262.008 105.808,262.432 105.184,263.606 103.407 C 264.261 102.415,264.989 101.283,265.224 100.890 C 265.459 100.497,265.897 99.883,266.197 99.526 C 266.497 99.169,266.743 98.778,266.743 98.656 C 266.743 98.535,266.933 98.232,267.164 97.983 C 267.396 97.734,267.728 97.249,267.903 96.905 C 268.077 96.561,268.480 95.960,268.798 95.569 C 269.327 94.919,269.652 94.418,270.635 92.739 C 270.824 92.417,271.288 91.728,271.666 91.209 C 272.044 90.690,272.477 90.073,272.628 89.838 C 274.851 86.392,275.845 85.225,276.801 84.934 C 277.862 84.613,288.309 84.687,288.952 85.020 M374.305 85.073 C 375.061 85.602,375.106 96.102,374.356 96.852 C 373.909 97.299,373.590 97.310,361.133 97.313 C 353.491 97.315,348.231 97.404,348.025 97.534 C 347.724 97.724,347.674 100.770,347.619 122.274 C 347.564 144.256,347.519 146.855,347.192 147.354 L 346.828 147.911 334.615 147.911 C 325.634 147.911,322.244 147.838,321.802 147.637 C 320.488 147.038,320.543 148.212,320.606 121.953 C 320.638 108.673,320.578 97.721,320.473 97.616 C 320.369 97.510,314.410 97.373,307.232 97.310 C 294.648 97.199,294.170 97.179,293.857 96.751 C 293.274 95.954,293.391 85.773,293.990 85.175 C 294.624 84.540,373.402 84.441,374.305 85.073 M101.909 85.601 C 102.637 86.500,102.575 96.208,101.838 96.724 C 101.386 97.041,98.804 97.081,78.627 97.081 C 53.422 97.081,54.681 97.021,53.902 98.256 L 53.345 99.138 53.205 116.255 C 53.100 129.035,53.132 133.517,53.331 133.944 C 54.356 136.148,51.847 135.946,78.576 135.977 C 99.203 136.002,101.665 136.042,101.987 136.364 C 102.585 136.963,102.517 146.505,101.909 147.256 L 101.471 147.796 72.316 147.796 C 39.865 147.796,38.955 147.757,35.595 146.219 C 34.877 145.890,34.159 145.621,33.999 145.621 C 33.290 145.621,29.538 142.599,29.537 142.028 C 29.537 141.878,29.338 141.616,29.096 141.446 C 28.853 141.276,28.474 140.678,28.252 140.116 C 28.030 139.555,27.665 138.838,27.441 138.523 C 26.648 137.411,26.487 134.248,26.390 117.802 C 26.284 100.113,26.521 95.347,27.565 94.108 C 27.726 93.917,27.997 93.400,28.166 92.959 C 28.923 90.993,32.058 87.957,33.823 87.481 C 34.333 87.344,34.866 87.091,35.009 86.919 C 35.392 86.458,39.690 85.495,42.816 85.169 C 43.635 85.084,57.167 85.025,72.888 85.037 L 101.472 85.060 101.909 85.601 M180.341 85.280 C 181.460 86.064,181.859 95.517,180.816 96.558 C 180.432 96.941,179.232 96.973,161.094 97.081 L 141.781 97.195 141.160 97.816 C 140.020 98.956,139.562 107.896,140.576 109.216 L 141.015 109.788 159.975 109.903 C 178.900 110.017,179.553 110.047,179.972 110.830 C 180.214 111.283,180.286 120.845,180.052 121.455 C 179.651 122.501,179.751 122.496,159.872 122.496 C 144.161 122.496,141.058 122.548,140.691 122.817 C 140.280 123.117,140.251 123.486,140.246 128.650 L 140.240 134.163 141.103 135.027 L 141.965 135.890 161.183 135.954 L 180.400 136.017 180.870 136.614 C 181.308 137.171,181.339 137.520,181.339 141.831 L 181.339 146.450 180.625 147.180 L 179.911 147.911 155.611 147.906 C 139.827 147.903,130.749 147.817,129.708 147.661 C 128.827 147.529,127.160 147.285,126.005 147.118 C 124.827 146.949,123.370 146.566,122.686 146.246 C 122.014 145.932,121.208 145.597,120.893 145.502 C 119.670 145.130,116.473 142.256,115.805 140.927 C 115.552 140.424,115.205 139.852,115.034 139.657 C 114.863 139.462,114.572 138.637,114.387 137.825 C 114.201 137.013,113.838 135.629,113.579 134.750 C 113.123 133.202,113.108 132.636,113.108 116.388 L 113.108 99.623 113.662 97.837 C 113.967 96.854,114.334 95.460,114.479 94.738 C 114.624 94.016,114.839 93.365,114.959 93.291 C 115.078 93.218,115.371 92.778,115.610 92.314 C 115.977 91.603,117.164 90.089,117.843 89.467 C 118.415 88.943,120.572 87.463,120.772 87.457 C 120.902 87.453,121.623 87.144,122.375 86.770 C 123.128 86.396,124.004 86.089,124.322 86.086 C 124.640 86.084,125.621 85.919,126.503 85.719 C 129.426 85.057,131.141 85.013,155.587 84.979 C 176.539 84.950,179.929 84.991,180.341 85.280 " stroke="none" fill="#95b0c4" fill-rule="evenodd"></path><path id="path3" d="M190.096 85.211 C 189.580 85.726,189.764 87.097,190.494 88.174 C 190.869 88.728,191.178 89.302,191.181 89.450 C 191.183 89.598,191.444 90.027,191.760 90.403 C 192.077 90.779,192.483 91.439,192.663 91.870 C 192.843 92.300,193.156 92.790,193.358 92.958 C 193.561 93.126,193.922 93.693,194.161 94.219 C 194.401 94.744,194.746 95.298,194.929 95.450 C 195.112 95.602,195.331 96.005,195.416 96.346 C 195.501 96.687,195.742 97.156,195.951 97.388 C 196.160 97.620,196.590 98.263,196.906 98.817 C 197.642 100.105,199.392 102.987,199.865 103.689 C 200.669 104.883,201.723 106.635,202.185 107.544 C 202.453 108.073,202.813 108.622,202.985 108.765 C 203.156 108.907,203.413 109.376,203.555 109.807 C 203.697 110.237,203.907 110.590,204.021 110.590 C 204.135 110.590,204.513 111.114,204.862 111.755 C 205.719 113.331,206.079 113.941,206.938 115.271 C 207.341 115.894,207.672 116.512,207.674 116.645 C 207.676 116.777,207.934 117.129,208.247 117.425 C 208.559 117.722,208.815 118.067,208.815 118.191 C 208.815 118.316,209.047 118.738,209.330 119.128 C 209.614 119.519,210.052 120.222,210.303 120.692 C 210.555 121.161,211.058 122.094,211.420 122.764 C 211.782 123.435,212.220 124.066,212.393 124.167 C 212.566 124.268,212.707 124.480,212.707 124.638 C 212.707 124.796,212.973 125.280,213.298 125.714 C 213.623 126.148,214.046 126.889,214.239 127.361 C 214.431 127.833,214.682 128.220,214.796 128.220 C 214.910 128.220,215.271 128.786,215.599 129.479 C 215.927 130.172,216.275 130.738,216.373 130.738 C 216.470 130.738,216.705 131.125,216.894 131.597 C 217.083 132.069,217.455 132.652,217.720 132.892 C 217.986 133.132,218.203 133.444,218.203 133.586 C 218.203 133.729,218.537 134.380,218.947 135.033 C 219.356 135.686,219.948 136.653,220.263 137.182 C 220.578 137.710,221.171 138.638,221.580 139.243 C 221.989 139.849,222.324 140.485,222.324 140.657 C 222.324 140.830,222.534 141.161,222.790 141.393 C 223.047 141.625,223.461 142.233,223.711 142.745 C 224.452 144.260,225.220 145.448,226.087 146.422 L 226.902 147.338 237.735 147.402 C 249.259 147.470,250.039 147.405,250.421 146.358 C 250.500 146.142,250.808 145.669,251.106 145.307 C 251.404 144.946,251.794 144.302,251.972 143.876 C 252.149 143.451,252.391 143.102,252.508 143.102 C 252.625 143.102,252.844 142.804,252.995 142.440 C 253.146 142.075,253.458 141.574,253.689 141.327 C 253.919 141.080,254.324 140.476,254.588 139.986 C 254.852 139.496,255.258 138.838,255.491 138.523 C 255.724 138.208,256.511 137.023,257.239 135.890 C 257.968 134.757,258.857 133.403,259.215 132.882 C 259.573 132.360,259.968 131.665,260.093 131.336 C 260.218 131.007,260.410 130.738,260.519 130.738 C 260.628 130.738,260.998 130.249,261.342 129.651 C 262.477 127.677,262.976 126.882,263.346 126.461 C 263.547 126.232,263.892 125.684,264.113 125.243 C 264.334 124.803,264.656 124.360,264.828 124.259 C 265.000 124.158,265.140 123.965,265.140 123.830 C 265.140 123.608,266.175 121.924,267.436 120.092 C 268.185 119.004,270.247 115.850,270.750 115.024 C 272.233 112.585,272.583 112.046,272.872 111.756 C 273.048 111.579,273.291 111.219,273.411 110.955 C 273.531 110.691,274.040 109.857,274.542 109.101 C 275.044 108.346,275.633 107.434,275.850 107.076 C 276.067 106.718,276.528 106.060,276.875 105.613 C 277.221 105.167,277.504 104.678,277.504 104.526 C 277.504 104.374,277.721 104.053,277.987 103.813 C 278.252 103.573,278.624 102.991,278.813 102.519 C 279.002 102.046,279.247 101.660,279.356 101.660 C 279.466 101.660,279.768 101.244,280.028 100.735 C 280.287 100.226,280.702 99.607,280.948 99.361 C 281.195 99.114,281.397 98.761,281.397 98.577 C 281.397 98.392,281.706 97.889,282.084 97.459 C 282.461 97.029,282.770 96.570,282.770 96.438 C 282.770 96.307,283.006 95.909,283.293 95.553 C 283.580 95.197,284.016 94.519,284.261 94.047 C 284.506 93.575,284.788 93.188,284.888 93.188 C 284.988 93.188,285.197 92.906,285.351 92.560 C 285.614 91.972,286.499 90.541,287.583 88.952 C 290.462 84.730,290.728 84.946,282.650 84.946 L 276.614 84.946 275.784 85.706 C 275.328 86.124,274.833 86.673,274.684 86.927 C 274.535 87.181,274.001 87.986,273.497 88.716 C 272.994 89.447,272.479 90.211,272.353 90.414 C 272.228 90.618,271.867 91.145,271.553 91.586 C 271.238 92.026,270.826 92.654,270.636 92.981 C 269.725 94.552,269.327 95.134,268.746 95.746 C 268.400 96.111,268.117 96.512,268.117 96.636 C 268.117 96.881,266.757 99.007,266.192 99.647 C 266.002 99.862,265.632 100.429,265.370 100.906 C 264.816 101.915,263.948 103.208,263.447 103.768 C 263.256 103.984,262.884 104.550,262.622 105.028 C 262.053 106.064,261.193 107.338,260.670 107.919 C 260.462 108.151,260.152 108.674,259.982 109.082 C 259.811 109.491,259.504 109.964,259.300 110.133 C 259.095 110.303,258.769 110.749,258.575 111.124 C 258.381 111.499,258.125 111.919,258.006 112.056 C 257.504 112.638,256.191 114.644,255.932 115.226 C 255.778 115.572,255.574 115.856,255.477 115.856 C 255.381 115.856,255.051 116.352,254.744 116.958 C 254.437 117.564,254.016 118.200,253.809 118.372 C 253.602 118.544,253.271 119.001,253.074 119.388 C 252.876 119.775,252.574 120.174,252.402 120.275 C 252.230 120.375,252.089 120.592,252.089 120.757 C 252.089 120.921,251.754 121.512,251.345 122.068 C 250.936 122.625,250.498 123.244,250.372 123.443 C 250.246 123.642,249.944 124.103,249.700 124.467 C 249.457 124.831,248.805 125.824,248.252 126.674 C 247.698 127.524,247.199 128.220,247.142 128.220 C 246.456 128.220,245.462 127.465,245.233 126.769 C 245.086 126.325,244.663 125.580,244.292 125.113 C 243.921 124.646,243.618 124.169,243.618 124.052 C 243.618 123.935,243.360 123.501,243.045 123.088 C 242.730 122.676,242.473 122.233,242.473 122.105 C 242.473 121.977,242.164 121.483,241.786 121.007 C 241.408 120.532,241.099 120.045,241.099 119.926 C 241.099 119.806,240.807 119.280,240.449 118.755 C 239.028 116.671,238.580 115.934,238.580 115.680 C 238.580 115.533,238.271 115.062,237.894 114.631 C 237.516 114.201,237.207 113.749,237.207 113.627 C 237.207 113.506,236.918 113.004,236.566 112.513 C 236.214 112.022,235.789 111.285,235.623 110.876 C 235.456 110.467,235.236 110.132,235.135 110.132 C 235.033 110.132,234.690 109.582,234.372 108.909 C 234.054 108.237,233.634 107.555,233.440 107.393 C 233.245 107.231,233.085 106.971,233.085 106.815 C 233.085 106.659,232.776 106.142,232.398 105.667 C 232.021 105.191,231.712 104.670,231.712 104.508 C 231.712 104.346,231.467 103.922,231.167 103.567 C 230.868 103.211,230.430 102.544,230.194 102.085 C 229.958 101.625,229.276 100.515,228.678 99.616 C 228.080 98.717,227.590 97.890,227.590 97.778 C 227.590 97.666,227.354 97.283,227.065 96.927 C 226.776 96.571,226.348 95.841,226.114 95.306 C 225.880 94.771,225.599 94.333,225.489 94.333 C 225.379 94.333,225.188 94.068,225.065 93.743 C 224.942 93.419,224.546 92.724,224.186 92.198 C 223.826 91.672,223.459 91.010,223.370 90.727 C 223.282 90.444,223.108 90.212,222.984 90.212 C 222.860 90.212,222.597 89.825,222.400 89.353 C 221.835 88.001,220.707 86.574,219.581 85.785 L 218.546 85.060 204.463 84.993 C 193.475 84.941,190.317 84.989,190.096 85.211 M294.035 85.220 C 293.837 85.419,293.761 87.027,293.761 91.013 C 293.761 95.000,293.837 96.607,294.035 96.806 C 294.243 97.013,297.445 97.081,307.043 97.081 C 317.677 97.081,319.848 97.134,320.220 97.406 C 320.653 97.723,320.667 98.315,320.782 122.305 C 320.847 135.822,320.924 146.903,320.954 146.932 C 321.699 147.645,322.363 147.682,334.611 147.682 L 346.864 147.682 347.159 147.167 C 347.391 146.759,347.477 141.534,347.567 122.221 C 347.659 102.607,347.740 97.732,347.979 97.493 C 348.215 97.257,350.969 97.181,361.181 97.129 C 372.727 97.070,374.118 97.024,374.393 96.693 C 374.844 96.150,374.837 85.869,374.385 85.324 C 373.977 84.832,294.527 84.729,294.035 85.220 M41.328 85.529 C 40.572 85.699,39.186 85.948,38.246 86.083 C 37.249 86.226,35.954 86.613,35.137 87.011 C 34.366 87.386,33.616 87.693,33.470 87.693 C 33.128 87.693,31.195 89.164,30.452 89.989 C 28.764 91.866,28.392 92.344,28.392 92.634 C 28.392 92.809,28.084 93.547,27.708 94.273 C 26.632 96.353,26.509 99.110,26.632 118.489 C 26.738 135.243,26.854 137.710,27.576 138.508 C 27.755 138.705,28.111 139.357,28.368 139.956 C 28.892 141.180,29.008 141.341,30.452 142.863 C 31.793 144.275,33.304 145.300,34.507 145.612 C 35.037 145.750,35.530 145.959,35.602 146.077 C 36.470 147.481,41.580 147.693,72.926 147.627 L 101.472 147.567 101.909 147.027 C 102.487 146.313,102.584 137.332,102.022 136.564 C 101.705 136.130,101.125 136.116,78.073 136.005 L 54.450 135.890 53.897 135.203 C 52.972 134.053,52.956 133.683,53.061 116.314 C 53.158 100.111,53.179 99.451,53.616 98.569 C 54.409 96.967,52.580 97.081,77.605 97.079 C 102.938 97.078,102.014 97.132,102.236 95.642 C 102.576 93.354,102.259 86.167,101.796 85.656 L 101.360 85.175 72.031 85.198 C 48.373 85.217,42.436 85.281,41.328 85.529 M128.105 85.545 C 127.350 85.716,126.012 85.963,125.133 86.094 C 123.815 86.291,121.398 87.185,120.304 87.880 C 118.042 89.318,116.329 90.978,115.788 92.257 C 115.651 92.580,115.362 93.051,115.146 93.303 C 114.929 93.555,114.598 94.533,114.409 95.478 C 114.221 96.422,113.877 97.659,113.645 98.226 C 112.936 99.956,112.999 132.977,113.715 134.974 C 113.986 135.730,114.331 136.966,114.482 137.722 C 114.867 139.644,116.423 142.037,118.246 143.510 C 120.257 145.136,120.604 145.368,121.252 145.527 C 121.621 145.617,122.276 145.878,122.707 146.107 C 123.473 146.512,124.152 146.678,127.418 147.259 C 128.615 147.472,135.498 147.564,154.606 147.622 L 180.191 147.699 180.657 146.946 C 181.338 145.848,181.258 137.256,180.560 136.486 L 180.124 136.005 161.014 136.005 L 141.904 136.005 141.015 135.116 L 140.126 134.227 140.126 128.618 C 140.126 123.682,140.171 122.972,140.504 122.695 C 140.816 122.437,144.245 122.361,159.909 122.267 C 180.544 122.143,179.794 122.195,180.088 120.857 C 180.479 119.079,179.949 110.827,179.425 110.527 C 179.054 110.314,174.346 110.218,159.968 110.132 L 141.001 110.017 140.564 109.477 C 140.163 108.981,140.126 108.518,140.126 103.955 C 140.126 98.605,140.160 98.441,141.494 97.374 C 141.762 97.160,146.268 97.094,160.879 97.088 C 179.268 97.081,179.933 97.066,180.455 96.643 C 181.360 95.912,181.409 86.421,180.513 85.525 C 180.018 85.030,130.299 85.049,128.105 85.545 M219.006 86.058 C 220.186 86.610,220.563 86.912,220.753 87.457 C 220.886 87.839,221.093 88.151,221.213 88.151 C 221.333 88.151,221.590 88.537,221.785 89.010 C 221.979 89.482,222.372 90.126,222.659 90.441 C 222.946 90.756,223.242 91.273,223.316 91.590 C 223.390 91.907,223.650 92.381,223.894 92.642 C 224.137 92.903,224.515 93.468,224.735 93.897 C 224.954 94.326,225.266 94.754,225.428 94.850 C 225.590 94.945,225.789 95.323,225.869 95.690 C 225.950 96.057,226.257 96.618,226.553 96.937 C 226.848 97.255,227.207 97.873,227.351 98.310 C 227.496 98.747,227.770 99.235,227.962 99.394 C 228.154 99.553,228.505 100.064,228.742 100.529 C 228.979 100.994,229.319 101.431,229.498 101.499 C 229.676 101.567,229.890 101.988,229.974 102.433 C 230.057 102.879,230.361 103.428,230.647 103.654 C 230.934 103.879,231.289 104.407,231.434 104.825 C 231.580 105.244,231.960 105.896,232.278 106.274 C 232.596 106.652,232.856 107.089,232.856 107.246 C 232.856 107.402,233.100 107.742,233.398 108.001 C 233.696 108.260,234.008 108.836,234.091 109.280 C 234.181 109.758,234.462 110.231,234.781 110.440 C 235.077 110.634,235.390 111.082,235.478 111.435 C 235.566 111.789,235.831 112.285,236.068 112.539 C 236.304 112.792,236.659 113.385,236.855 113.855 C 237.052 114.326,237.355 114.711,237.529 114.711 C 237.875 114.711,238.122 115.193,238.122 115.867 C 238.122 116.104,238.432 116.650,238.809 117.080 C 239.187 117.510,239.496 117.970,239.496 118.101 C 239.496 118.232,239.735 118.630,240.026 118.986 C 240.317 119.342,240.737 120.026,240.959 120.506 C 241.181 120.986,241.503 121.432,241.675 121.498 C 241.846 121.564,242.052 121.913,242.131 122.274 C 242.210 122.635,242.577 123.310,242.946 123.775 C 243.316 124.239,243.618 124.742,243.618 124.891 C 243.618 125.041,243.875 125.405,244.190 125.701 C 244.505 125.997,244.763 126.401,244.763 126.600 C 244.768 128.593,247.315 129.261,248.211 127.505 C 248.460 127.016,248.749 126.617,248.854 126.617 C 248.958 126.617,249.228 126.208,249.453 125.708 C 249.679 125.208,250.055 124.625,250.289 124.413 C 250.524 124.201,250.716 123.884,250.716 123.709 C 250.716 123.534,250.974 123.133,251.289 122.817 C 251.605 122.501,252.067 121.843,252.316 121.355 C 252.566 120.866,252.876 120.401,253.005 120.320 C 253.135 120.240,253.389 119.821,253.569 119.389 C 253.750 118.957,253.999 118.603,254.122 118.603 C 254.246 118.603,254.579 118.139,254.863 117.571 C 255.146 117.003,255.566 116.369,255.794 116.161 C 256.023 115.954,256.211 115.597,256.211 115.368 C 256.211 115.138,256.463 114.785,256.771 114.583 C 257.080 114.381,257.444 113.876,257.581 113.461 C 257.719 113.045,258.033 112.523,258.280 112.299 C 258.527 112.075,258.729 111.765,258.729 111.608 C 258.729 111.452,258.991 111.082,259.311 110.785 C 259.630 110.489,260.041 109.902,260.223 109.482 C 260.406 109.061,260.814 108.409,261.130 108.033 C 261.447 107.657,261.706 107.199,261.706 107.016 C 261.706 106.833,261.865 106.622,262.060 106.547 C 262.255 106.472,262.668 105.909,262.980 105.295 C 263.291 104.681,263.639 104.179,263.753 104.179 C 263.867 104.179,264.079 103.817,264.225 103.375 C 264.371 102.934,264.675 102.473,264.902 102.352 C 265.129 102.231,265.470 101.742,265.661 101.266 C 265.851 100.790,266.224 100.204,266.490 99.965 C 266.755 99.725,266.972 99.408,266.972 99.260 C 266.972 99.113,267.227 98.753,267.538 98.461 C 267.849 98.168,268.225 97.561,268.374 97.110 C 268.523 96.659,268.886 96.100,269.182 95.868 C 269.478 95.635,269.720 95.297,269.720 95.116 C 269.720 94.936,269.970 94.571,270.275 94.305 C 270.581 94.039,270.962 93.499,271.121 93.104 C 271.281 92.710,271.574 92.232,271.773 92.044 C 271.972 91.855,272.268 91.395,272.432 91.023 C 272.595 90.651,272.920 90.212,273.153 90.049 C 273.386 89.886,273.696 89.392,273.841 88.952 C 273.986 88.511,274.205 88.151,274.328 88.151 C 274.450 88.151,274.674 87.863,274.825 87.511 C 274.976 87.159,275.525 86.490,276.044 86.023 L 276.987 85.175 282.842 85.175 C 286.961 85.175,288.744 85.252,288.857 85.434 C 289.029 85.712,287.869 88.152,287.431 88.435 C 287.287 88.528,286.956 89.014,286.695 89.515 C 286.434 90.016,286.011 90.635,285.755 90.891 C 285.499 91.147,285.289 91.543,285.289 91.772 C 285.289 92.000,284.980 92.483,284.602 92.845 C 284.224 93.207,283.915 93.630,283.915 93.786 C 283.915 93.942,283.681 94.360,283.395 94.716 C 283.109 95.072,282.698 95.750,282.483 96.222 C 282.267 96.694,281.991 97.081,281.869 97.081 C 281.747 97.081,281.442 97.544,281.191 98.111 C 280.941 98.678,280.638 99.141,280.519 99.141 C 280.399 99.141,280.140 99.546,279.942 100.041 C 279.744 100.536,279.437 101.026,279.260 101.129 C 279.083 101.232,278.726 101.736,278.467 102.248 C 278.208 102.760,277.834 103.313,277.636 103.478 C 277.437 103.642,277.275 103.951,277.275 104.164 C 277.275 104.377,276.975 104.839,276.607 105.191 C 276.239 105.543,275.871 106.099,275.789 106.427 C 275.707 106.755,275.433 107.233,275.180 107.490 C 274.512 108.168,273.685 109.417,273.166 110.532 C 272.916 111.068,272.617 111.505,272.501 111.505 C 272.385 111.505,272.109 111.892,271.887 112.364 C 271.665 112.836,271.241 113.514,270.945 113.870 C 270.649 114.226,270.406 114.664,270.406 114.844 C 270.406 115.025,270.149 115.396,269.834 115.670 C 269.519 115.943,269.262 116.295,269.262 116.452 C 269.262 116.608,269.003 117.044,268.686 117.420 C 268.370 117.797,267.958 118.469,267.772 118.914 C 267.586 119.359,267.292 119.806,267.118 119.907 C 266.945 120.009,266.591 120.511,266.332 121.023 C 266.073 121.535,265.699 122.088,265.500 122.253 C 265.302 122.417,265.140 122.686,265.140 122.850 C 265.140 123.013,264.897 123.439,264.600 123.795 C 264.303 124.151,263.885 124.782,263.672 125.198 C 263.459 125.614,263.084 126.155,262.838 126.400 C 262.593 126.645,262.393 126.983,262.393 127.150 C 262.393 127.316,262.133 127.697,261.816 127.994 C 261.499 128.292,261.123 128.928,260.979 129.408 C 260.835 129.888,260.589 130.280,260.433 130.280 C 260.276 130.280,260.043 130.581,259.915 130.949 C 259.787 131.317,259.458 131.841,259.185 132.114 C 258.912 132.387,258.552 132.938,258.385 133.339 C 258.217 133.740,257.866 134.262,257.603 134.499 C 257.341 134.737,257.127 135.055,257.127 135.207 C 257.127 135.359,256.817 135.873,256.440 136.348 C 256.062 136.823,255.753 137.357,255.753 137.535 C 255.753 137.712,255.495 138.115,255.179 138.431 C 254.863 138.746,254.407 139.393,254.165 139.867 C 253.923 140.341,253.563 140.863,253.365 141.028 C 253.167 141.192,253.005 141.459,253.005 141.621 C 253.005 141.782,252.645 142.346,252.204 142.873 C 251.763 143.401,251.402 143.965,251.402 144.126 C 251.402 144.288,251.232 144.562,251.023 144.734 C 250.815 144.907,250.511 145.369,250.347 145.760 C 249.840 146.974,249.288 147.025,237.599 146.949 L 227.116 146.880 226.211 145.900 C 225.713 145.361,225.241 144.663,225.162 144.349 C 225.083 144.034,224.843 143.683,224.628 143.568 C 224.412 143.453,224.107 142.929,223.950 142.403 C 223.770 141.802,223.499 141.405,223.220 141.332 C 222.975 141.268,222.720 140.947,222.649 140.614 C 222.443 139.643,221.911 138.714,220.537 136.920 C 220.296 136.606,220.021 136.090,219.926 135.776 C 219.832 135.461,219.524 134.946,219.244 134.631 C 218.963 134.316,218.603 133.727,218.443 133.322 C 218.284 132.917,217.996 132.455,217.803 132.295 C 217.611 132.135,217.265 131.565,217.035 131.028 C 216.804 130.491,216.514 130.052,216.388 130.052 C 216.263 130.052,216.034 129.629,215.879 129.113 C 215.724 128.596,215.366 128.022,215.083 127.837 C 214.800 127.651,214.503 127.203,214.424 126.841 C 214.344 126.479,213.977 125.803,213.608 125.338 C 213.239 124.874,212.936 124.409,212.936 124.305 C 212.936 124.201,212.743 123.932,212.507 123.707 C 212.271 123.481,212.003 123.039,211.911 122.725 C 211.820 122.410,211.463 121.792,211.119 121.351 C 210.775 120.910,210.423 120.269,210.338 119.926 C 210.253 119.583,209.992 119.120,209.757 118.896 C 209.523 118.672,209.158 118.149,208.947 117.733 C 208.735 117.317,208.423 116.924,208.253 116.858 C 208.083 116.793,207.881 116.401,207.803 115.986 C 207.725 115.571,207.444 115.037,207.178 114.800 C 206.912 114.562,206.499 113.955,206.260 113.452 C 205.673 112.215,204.878 110.933,204.308 110.306 C 204.050 110.021,203.770 109.502,203.688 109.153 C 203.605 108.803,203.325 108.305,203.065 108.045 C 202.805 107.785,202.449 107.228,202.273 106.807 C 202.097 106.386,201.851 105.979,201.727 105.902 C 201.603 105.825,201.301 105.309,201.056 104.755 C 200.811 104.201,200.396 103.614,200.133 103.450 C 199.871 103.287,199.657 102.928,199.657 102.653 C 199.657 102.378,199.413 101.862,199.116 101.506 C 198.819 101.150,198.402 100.518,198.189 100.103 C 197.975 99.687,197.662 99.293,197.492 99.228 C 197.322 99.163,197.119 98.770,197.041 98.356 C 196.964 97.941,196.683 97.407,196.417 97.169 C 196.151 96.932,195.737 96.325,195.496 95.821 C 194.729 94.219,193.764 92.668,193.411 92.470 C 193.223 92.365,193.001 91.916,192.918 91.473 C 192.828 90.997,192.547 90.522,192.231 90.316 C 191.937 90.123,191.634 89.652,191.557 89.270 C 191.481 88.887,191.108 88.198,190.729 87.738 C 190.006 86.860,189.844 85.931,190.326 85.423 C 190.559 85.178,193.124 85.143,204.056 85.237 L 217.500 85.353 219.006 86.058 M374.103 85.489 C 374.287 85.710,374.346 87.398,374.303 91.147 L 374.242 96.490 373.440 96.668 C 372.999 96.766,367.436 96.842,361.076 96.837 C 354.717 96.832,349.122 96.834,348.643 96.840 C 347.029 96.862,347.109 95.506,347.109 122.589 C 347.109 141.658,347.049 146.778,346.823 146.924 C 346.180 147.340,323.029 147.276,322.097 146.855 L 321.236 146.467 321.236 122.361 C 321.236 108.178,321.149 98.026,321.025 97.699 C 320.692 96.822,320.618 96.817,307.956 96.826 C 301.345 96.831,295.524 96.759,295.020 96.668 L 294.104 96.501 294.040 91.353 C 294.004 88.521,294.032 85.973,294.101 85.690 L 294.227 85.175 334.035 85.175 C 367.532 85.175,373.883 85.224,374.103 85.489 M101.139 85.855 C 102.120 86.454,102.159 86.692,102.075 91.678 C 102.009 95.620,101.967 96.000,101.559 96.298 C 101.182 96.573,97.595 96.623,78.090 96.626 C 52.685 96.630,54.468 96.518,53.264 98.191 L 52.547 99.186 52.488 116.622 L 52.428 134.058 53.003 134.724 C 53.319 135.090,53.578 135.473,53.578 135.576 C 53.578 136.445,54.068 136.463,78.281 136.463 C 96.711 136.463,101.672 136.523,101.818 136.749 C 102.037 137.087,102.215 145.432,102.020 146.210 C 101.768 147.213,101.533 147.221,73.154 147.222 C 44.213 147.223,37.517 146.994,36.493 145.970 C 36.301 145.779,35.868 145.562,35.531 145.488 C 34.432 145.249,33.556 144.861,32.896 144.320 C 32.540 144.028,32.154 143.789,32.038 143.789 C 31.756 143.789,29.994 142.070,29.994 141.795 C 29.994 141.677,29.752 141.352,29.456 141.074 C 29.159 140.795,28.794 140.156,28.643 139.654 C 28.493 139.151,28.133 138.392,27.845 137.966 C 27.105 136.877,27.018 134.470,27.030 115.627 C 27.041 98.289,27.142 95.813,27.879 94.817 C 28.141 94.461,28.476 93.726,28.622 93.182 C 28.769 92.638,29.137 91.998,29.441 91.758 C 29.745 91.519,29.994 91.220,29.994 91.093 C 29.994 90.777,31.799 89.067,32.133 89.067 C 32.281 89.067,32.525 88.872,32.673 88.634 C 32.823 88.394,33.464 88.067,34.107 87.902 C 34.746 87.738,35.477 87.411,35.730 87.175 C 36.061 86.867,36.783 86.683,38.301 86.522 C 39.462 86.398,41.442 86.110,42.702 85.882 C 46.417 85.210,100.039 85.185,101.139 85.855 M180.108 85.804 C 180.179 86.025,180.341 86.425,180.469 86.694 C 180.740 87.263,180.634 95.893,180.350 96.337 C 180.207 96.562,176.118 96.623,161.170 96.623 C 140.730 96.623,141.106 96.602,140.270 97.794 C 139.642 98.691,139.716 109.493,140.355 110.132 C 140.805 110.582,141.123 110.590,159.760 110.597 C 174.351 110.602,178.791 110.669,179.075 110.885 C 179.382 111.119,179.469 111.938,179.599 115.857 L 179.755 120.550 179.086 121.294 L 178.417 122.038 159.517 122.038 C 142.640 122.038,140.578 122.076,140.257 122.398 C 139.948 122.706,139.897 123.609,139.897 128.766 L 139.897 134.774 140.527 135.361 C 141.746 136.499,141.070 136.463,161.162 136.463 C 176.116 136.463,180.207 136.524,180.351 136.749 C 180.791 137.435,180.725 146.010,180.275 146.627 L 179.851 147.209 156.726 147.213 C 143.871 147.215,132.482 147.119,131.082 146.997 C 124.409 146.417,123.874 146.346,123.524 145.995 C 123.329 145.801,122.545 145.466,121.782 145.252 C 121.012 145.036,120.277 144.675,120.130 144.440 C 119.986 144.208,119.731 144.018,119.564 144.018 C 119.149 144.018,116.085 140.867,116.085 140.440 C 116.085 140.250,115.816 139.743,115.487 139.312 C 115.031 138.714,114.844 138.116,114.694 136.781 C 114.581 135.772,114.325 134.778,114.089 134.431 C 113.462 133.508,113.456 99.357,114.083 98.435 C 114.304 98.110,114.579 97.098,114.693 96.186 C 114.837 95.043,115.085 94.251,115.493 93.634 C 115.818 93.143,116.085 92.640,116.085 92.518 C 116.085 92.396,116.317 92.044,116.600 91.737 C 116.883 91.429,117.424 90.798,117.802 90.335 C 118.180 89.872,118.798 89.330,119.176 89.131 C 119.554 88.932,119.991 88.588,120.148 88.366 C 120.304 88.144,120.856 87.891,121.374 87.804 C 121.892 87.716,122.509 87.451,122.746 87.214 C 123.055 86.905,123.749 86.717,125.184 86.552 C 126.287 86.425,127.808 86.210,128.563 86.074 C 129.319 85.939,130.504 85.746,131.196 85.646 C 134.128 85.222,179.969 85.371,180.108 85.804 " stroke="none" fill="#7294b2" fill-rule="evenodd"></path><path id="path4" d="M280.093 84.888 C 281.706 84.927,284.282 84.927,285.818 84.888 C 287.353 84.848,286.033 84.816,282.885 84.816 C 279.737 84.816,278.481 84.848,280.093 84.888 M314.328 84.888 C 325.326 84.921,343.254 84.921,354.168 84.888 C 365.083 84.855,356.085 84.829,334.173 84.829 C 312.261 84.829,303.331 84.855,314.328 84.888 M58.196 85.117 C 65.963 85.151,78.739 85.151,86.588 85.117 C 94.437 85.084,88.082 85.057,72.467 85.057 C 56.852 85.057,50.430 85.084,58.196 85.117 M143.257 85.117 C 149.953 85.151,160.977 85.151,167.756 85.117 C 174.534 85.084,169.056 85.056,155.581 85.056 C 142.106 85.056,136.561 85.084,143.257 85.117 M189.857 85.220 C 189.706 85.371,189.599 85.861,189.619 86.308 L 189.655 87.121 189.752 86.320 C 189.805 85.880,189.956 85.391,190.087 85.233 C 190.391 84.867,190.220 84.858,189.857 85.220 M374.277 85.175 C 374.422 85.363,374.588 85.776,374.646 86.090 L 374.752 86.663 374.783 86.061 C 374.800 85.730,374.634 85.319,374.413 85.145 C 374.065 84.872,374.047 84.876,374.277 85.175 M40.985 85.404 C 40.215 85.650,41.046 85.650,42.015 85.404 C 42.632 85.247,42.644 85.228,42.129 85.224 C 41.815 85.222,41.299 85.303,40.985 85.404 M127.991 85.404 C 127.538 85.549,127.514 85.587,127.876 85.587 C 128.128 85.587,128.592 85.504,128.907 85.404 C 129.360 85.258,129.384 85.220,129.021 85.220 C 128.769 85.220,128.306 85.303,127.991 85.404 M293.631 91.013 C 293.631 94.035,293.663 95.240,293.703 93.690 C 293.743 92.140,293.742 89.668,293.703 88.195 C 293.663 86.723,293.630 87.991,293.631 91.013 M181.066 90.807 C 181.126 94.743,181.078 95.610,180.770 96.229 C 180.418 96.938,180.420 96.950,180.814 96.558 C 181.261 96.114,181.585 87.176,181.181 86.452 C 181.079 86.270,181.028 88.229,181.066 90.807 M190.048 87.820 C 190.057 88.050,191.182 89.499,191.184 89.283 C 191.184 89.213,190.927 88.807,190.612 88.380 C 190.298 87.953,190.044 87.702,190.048 87.820 M191.871 90.841 C 192.171 91.251,192.452 91.586,192.495 91.586 C 192.669 91.586,192.101 90.727,191.726 90.422 C 191.479 90.221,191.534 90.381,191.871 90.841 M300.916 97.252 C 304.410 97.288,310.129 97.288,313.623 97.252 C 317.118 97.217,314.259 97.188,307.270 97.188 C 300.280 97.188,297.421 97.217,300.916 97.252 M355.295 97.252 C 358.726 97.288,364.342 97.288,367.773 97.252 C 371.205 97.217,368.397 97.188,361.534 97.188 C 354.671 97.188,351.863 97.217,355.295 97.252 M26.622 99.141 C 26.622 99.708,26.667 99.940,26.721 99.657 C 26.776 99.373,26.776 98.910,26.721 98.626 C 26.667 98.343,26.622 98.575,26.622 99.141 M53.219 104.865 C 53.219 107.951,53.251 109.213,53.291 107.670 C 53.330 106.128,53.330 103.603,53.291 102.061 C 53.251 100.518,53.219 101.780,53.219 104.865 M26.393 116.314 C 26.373 125.192,26.429 132.858,26.516 133.351 C 26.661 134.169,26.641 108.175,26.492 102.576 C 26.457 101.254,26.412 107.436,26.393 116.314 M231.920 105.056 C 232.043 105.287,232.324 105.622,232.544 105.800 C 232.791 106.001,232.736 105.841,232.399 105.381 C 231.798 104.559,231.572 104.406,231.920 105.056 M200.582 104.934 C 200.564 105.278,201.228 106.386,201.645 106.710 C 202.038 107.015,202.040 107.008,201.689 106.579 C 201.484 106.329,201.153 105.816,200.954 105.438 C 200.754 105.060,200.587 104.833,200.582 104.934 M140.353 109.170 C 140.820 110.119,141.132 110.133,160.232 110.078 L 178.706 110.025 159.861 109.907 L 141.015 109.788 140.555 109.216 C 140.127 108.683,140.113 108.679,140.353 109.170 M180.049 113.223 C 180.050 114.482,180.088 114.968,180.135 114.303 C 180.181 113.637,180.181 112.607,180.134 112.013 C 180.087 111.419,180.049 111.963,180.049 113.223 M236.290 112.135 C 236.590 112.544,236.871 112.879,236.914 112.879 C 237.088 112.879,236.520 112.020,236.145 111.716 C 235.898 111.515,235.953 111.675,236.290 112.135 M209.024 119.023 C 209.147 119.254,209.428 119.588,209.648 119.767 C 209.895 119.968,209.840 119.808,209.503 119.347 C 208.901 118.526,208.676 118.373,209.024 119.023 M267.386 120.149 C 266.982 120.619,266.680 121.122,266.801 121.122 C 266.848 121.122,267.114 120.813,267.394 120.435 C 267.946 119.689,267.940 119.503,267.386 120.149 M320.656 131.998 C 320.656 138.420,320.685 141.080,320.721 137.910 C 320.757 134.739,320.757 129.484,320.721 126.232 C 320.685 122.981,320.656 125.575,320.656 131.998 M179.393 121.873 C 179.047 122.084,174.401 122.181,160.389 122.269 L 141.843 122.387 160.229 122.441 C 178.893 122.497,179.966 122.456,179.966 121.688 C 179.966 121.538,179.915 121.555,179.393 121.873 M140.370 122.821 C 140.211 123.013,140.135 123.643,140.185 124.366 L 140.270 125.587 140.313 124.282 C 140.344 123.311,140.458 122.917,140.756 122.743 C 140.976 122.615,141.040 122.506,140.898 122.503 C 140.756 122.499,140.519 122.642,140.370 122.821 M52.983 129.708 C 52.984 131.723,53.019 132.517,53.061 131.472 C 53.104 130.427,53.103 128.778,53.061 127.808 C 53.018 126.838,52.983 127.693,52.983 129.708 M140.355 134.473 C 140.355 134.513,140.690 134.848,141.099 135.218 L 141.843 135.890 141.171 135.146 C 140.544 134.452,140.355 134.297,140.355 134.473 M180.653 136.532 C 181.114 137.117,181.290 145.772,180.857 146.584 C 180.603 147.061,180.612 147.081,180.959 146.795 C 181.637 146.235,181.520 137.364,180.824 136.636 C 180.541 136.339,180.464 136.293,180.653 136.532 M117.459 142.945 C 117.459 142.985,117.793 143.319,118.203 143.689 L 118.947 144.362 118.274 143.618 C 117.647 142.924,117.459 142.768,117.459 142.945 M101.431 147.360 C 100.947 147.631,96.324 147.672,71.600 147.624 C 55.508 147.593,42.719 147.646,43.181 147.742 C 45.179 148.157,101.386 147.825,101.815 147.396 C 102.282 146.928,102.214 146.922,101.431 147.360 M321.007 147.098 C 321.007 147.834,346.511 148.465,346.960 147.739 C 347.018 147.645,341.510 147.595,334.720 147.628 C 323.960 147.682,322.286 147.644,321.690 147.336 C 321.315 147.142,321.007 147.035,321.007 147.098 M129.937 147.719 C 130.567 147.802,142.106 147.857,155.581 147.841 C 169.056 147.824,178.741 147.782,177.104 147.748 C 170.322 147.605,128.883 147.579,129.937 147.719 M232.799 147.624 C 235.727 147.661,240.518 147.661,243.446 147.624 C 246.374 147.588,243.978 147.558,238.122 147.558 C 232.267 147.558,229.871 147.588,232.799 147.624 " stroke="none" fill="#7c9cb4" fill-rule="evenodd"></path></g></svg>