<svg id="taxi_x5F_direction" enable-background="new 0 0 300 300" height="512" viewBox="0 0 300 300" width="512" xmlns="http://www.w3.org/2000/svg"><g><circle cx="180" cy="128" fill="#eaeaea" r="92"/><g><path d="m251.473 240h-102.946c-6.919 0-12.527-5.609-12.527-12.527v-26.945c0-6.919 5.609-12.527 12.527-12.527h102.945c6.919 0 12.527 5.609 12.527 12.527v26.945c.001 6.918-5.608 12.527-12.526 12.527z" fill="#ffce56"/><path d="m251.473 244h-102.946c-9.113 0-16.527-7.414-16.527-16.527v-26.945c0-9.113 7.414-16.527 16.527-16.527h102.945c9.113 0 16.527 7.414 16.527 16.527v26.945c.001 9.113-7.413 16.527-16.526 16.527zm-102.946-52c-4.701 0-8.527 3.826-8.527 8.527v26.945c0 4.701 3.826 8.527 8.527 8.527h102.945c4.701 0 8.527-3.826 8.527-8.527v-26.945c0-4.701-3.826-8.527-8.527-8.527z" fill="#4c241d"/></g><g><path d="m235.383 156h-71.306c-5.992 0-11.124 3.941-12.184 9.357l-4.433 22.643h104.54l-4.433-22.643c-1.06-5.416-6.192-9.357-12.184-9.357z" fill="#c1dbdc"/><path d="m252 192h-104.541c-1.195 0-2.328-.535-3.088-1.457-.76-.924-1.066-2.139-.838-3.312l4.434-22.643c1.43-7.293 8.203-12.588 16.109-12.588h71.307c7.906 0 14.68 5.295 16.109 12.588l4.434 22.643c.229 1.174-.078 2.389-.838 3.312-.76.922-1.893 1.457-3.088 1.457zm-99.682-8h94.822l-3.5-17.873c-.695-3.551-4.168-6.127-8.258-6.127h-71.307c-4.09 0-7.562 2.576-8.258 6.127z" fill="#4c241d"/></g><circle cx="236.272" cy="215.927" fill="#fff" r="8.595"/><circle cx="161.784" cy="215.927" fill="#fff" r="8.595"/><g><path d="m160 260c-4.418 0-8-3.582-8-8v-12h16v12c0 4.418-3.582 8-8 8z" fill="#6b4f5b"/><path d="m160 264c-6.617 0-12-5.383-12-12v-12c0-2.209 1.791-4 4-4h16c2.209 0 4 1.791 4 4v12c0 6.617-5.383 12-12 12zm-4-20v8c0 2.205 1.795 4 4 4s4-1.795 4-4v-8z" fill="#4c241d"/></g><g><path d="m244 260c-4.418 0-8-3.582-8-8v-12h16v12c0 4.418-3.582 8-8 8z" fill="#6b4f5b"/><path d="m244 264c-6.617 0-12-5.383-12-12v-12c0-2.209 1.791-4 4-4h16c2.209 0 4 1.791 4 4v12c0 6.617-5.383 12-12 12zm-4-20v8c0 2.205 1.795 4 4 4s4-1.795 4-4v-8z" fill="#4c241d"/></g><g fill="#4c241d"><path d="m160 100c-2.209 0-4-1.791-4-4v-8c0-2.209 1.791-4 4-4s4 1.791 4 4v8c0 2.209-1.791 4-4 4z"/><path d="m160 124c-2.209 0-4-1.791-4-4v-8c0-2.209 1.791-4 4-4s4 1.791 4 4v8c0 2.209-1.791 4-4 4z"/><path d="m176 108h-8c-2.209 0-4-1.791-4-4s1.791-4 4-4h8c2.209 0 4 1.791 4 4s-1.791 4-4 4z"/><path d="m152 108h-8c-2.209 0-4-1.791-4-4s1.791-4 4-4h8c2.209 0 4 1.791 4 4s-1.791 4-4 4z"/><path d="m250 64c-7.719 0-14-6.281-14-14s6.281-14 14-14 14 6.281 14 14-6.281 14-14 14zm0-20c-3.309 0-6 2.691-6 6s2.691 6 6 6 6-2.691 6-6-2.691-6-6-6z"/><circle cx="242.768" cy="108.345" r="4.276"/><circle cx="110.768" cy="52.345" r="4.276"/></g><g><path d="m212.155 140h-24.31l-3.845 16h32z" fill="#ffce56"/><path d="m216 160h-32c-1.225 0-2.383-.562-3.141-1.523-.76-.963-1.035-2.221-.748-3.412l3.846-16c.432-1.797 2.039-3.064 3.889-3.064h24.309c1.85 0 3.457 1.268 3.889 3.064l3.846 16c.287 1.191.012 2.449-.748 3.412-.759.961-1.917 1.523-3.142 1.523zm-26.924-8h21.848l-1.922-8h-18.004z" fill="#4c241d"/></g><g><path d="m98.114 97.048c0 17.531-30.989 58.952-30.989 58.952s-30.989-41.421-30.989-58.952 13.874-31.744 30.989-31.744 30.989 14.212 30.989 31.744z" fill="#f53e28"/><path d="m67.125 160c-1.26 0-2.447-.594-3.203-1.604-3.254-4.35-31.785-43.016-31.785-61.35 0-19.709 15.695-35.742 34.988-35.742s34.988 16.033 34.988 35.742c0 18.334-28.531 57-31.785 61.35-.756 1.01-1.943 1.604-3.203 1.604zm0-90.695c-14.881 0-26.988 12.445-26.988 27.742 0 11.832 17.271 38.523 26.988 52.16 9.717-13.639 26.988-40.336 26.988-52.16 0-15.297-12.107-27.742-26.988-27.742z" fill="#4c241d"/></g><g><ellipse cx="67.125" cy="97.048" fill="#fff" rx="15.686" ry="16.068"/><path d="m67.125 117.115c-10.855 0-19.686-9.002-19.686-20.068 0-11.064 8.83-20.066 19.686-20.066s19.686 9.002 19.686 20.066c0 11.066-8.831 20.068-19.686 20.068zm0-32.135c-6.443 0-11.686 5.412-11.686 12.066s5.242 12.068 11.686 12.068 11.686-5.414 11.686-12.068-5.243-12.066-11.686-12.066z" fill="#4c241d"/></g><path d="m160 264h-110c-12.131 0-22-9.869-22-22s9.869-22 22-22h52c7.719 0 14-6.281 14-14s-6.281-14-14-14h-50c-11.027 0-20-8.973-20-20s8.973-20 20-20h16c2.209 0 4 1.791 4 4s-1.791 4-4 4h-16c-6.617 0-12 5.383-12 12s5.383 12 12 12h50c12.131 0 22 9.869 22 22s-9.869 22-22 22h-52c-7.719 0-14 6.281-14 14s6.281 14 14 14h110c2.209 0 4 1.791 4 4s-1.791 4-4 4z" fill="#4c241d"/></g></svg>