<svg height="511.9767pt" viewBox="0 0 511.9767 511.9767" width="511.9767pt" xmlns="http://www.w3.org/2000/svg"><path d="m367.101562 392.070312 24.96875-24.96875 43.328126 43.328126-24.96875 24.96875zm0 0" fill="#bdc3c7"/><path d="m504.230469 504.230469c-10.339844 10.328125-27.089844 10.328125-37.425781 0l-43.699219-43.695313 7.792969-29.777344 29.636718-7.652343 43.695313 43.699219c10.328125 10.335937 10.328125 27.085937 0 37.425781zm0 0" fill="#285680"/><path d="m341.839844 379.171875 18.835937 18.957031c1.65625 1.65625 3.902344 2.585938 6.242188 2.585938 2.339843 0 4.585937-.929688 6.242187-2.585938l24.96875-24.96875c3.445313-3.449218 3.445313-9.035156 0-12.484375l-18.859375-18.953125zm0 0" fill="#2c3e50"/><path d="m460.535156 423.105469-37.429687 37.429687-18.714844-18.714844c-1.652344-1.648437-2.582031-3.886718-2.582031-6.222656 0-2.335937.929687-4.574218 2.582031-6.222656l24.984375-24.984375c1.648438-1.652344 3.886719-2.582031 6.222656-2.582031 2.335938 0 4.574219.929687 6.222656 2.582031zm0 0" fill="#2c3e50"/><path d="m423.722656 211.863281c0 117.007813-94.851562 211.859375-211.859375 211.859375-117.007812 0-211.863281-94.851562-211.863281-211.859375 0-117.007812 94.855469-211.863281 211.863281-211.863281 117.007813 0 211.859375 94.855469 211.859375 211.863281zm0 0" fill="#285680"/><path d="m49.433594 281.070312c-23.230469-54.539062-17.542969-117.09375 15.140625-166.550781 32.6875-49.453125 88.007812-79.203125 147.289062-79.210937 30.5-.074219 60.488281 7.871094 86.949219 23.042968zm0 0" fill="#b0d3f0"/><path d="m388.414062 211.863281c.035157 71.242188-42.769531 135.515625-108.519531 162.945313-65.746093 27.433594-141.542969 12.636718-192.148437-37.507813-16.371094-16.019531-29.390625-35.132812-38.3125-56.230469 41.050781-143.976562 163.488281-200.5625 249.378906-222.71875 15.476562 8.621094 29.503906 19.609376 41.578125 32.574219 30.878906 32.691407 48.0625 75.96875 48.023437 120.9375zm0 0" fill="#90bae1"/><path d="m138.191406 190.605469c-.222656 9.835937-.027344 17.671875.40625 24.132812-1.703125-1.785156-6.902344-6.613281-11.527344-4.4375-5.554687 2.59375-2.800781 26.265625-2.800781 26.265625 2.101563 11.203125 9.21875 20.828125 19.3125 26.121094l.039063-.023438c-.730469 15.21875-2.019532 29.0625 15.925781 44.828126 20.925781 18.390624 20.925781 36.785156 41.851563 36.785156h20.925781c20.929687 0 20.929687-18.394532 41.855469-36.785156 17.941406-15.765626 16.65625-29.609376 15.921874-44.828126l.039063.023438c10.09375-5.292969 17.210937-14.917969 19.316406-26.121094 0 0 2.75-23.671875-2.804687-26.265625-4.621094-2.175781-9.824219 2.652344-11.527344 4.4375.4375-6.460937.628906-14.300781.40625-24.132812zm0 0" fill="#fdd7ad"/><path d="m176.550781 238.34375c26.484375 0 35.3125-8.828125 35.3125-8.828125v-26.480469c-25.117187.453125-50.09375-3.761718-73.671875-12.429687-.222656 9.835937-.027344 17.671875.40625 24.132812 7.457032 14.148438 21.96875 23.171875 37.953125 23.605469zm0 0" fill="#2c2f38"/><path d="m247.171875 238.34375c-26.480469 0-35.308594-8.828125-35.308594-8.828125v-26.480469c25.113281.453125 50.09375-3.761718 73.667969-12.429687.222656 9.835937.03125 17.671875-.40625 24.132812-7.457031 14.148438-21.964844 23.171875-37.953125 23.605469zm0 0" fill="#2c2f38"/><path d="m285.132812 214.773438c-7.472656 14.136718-21.980468 23.144531-37.960937 23.570312-26.480469 0-35.308594-8.828125-35.308594-8.828125s-8.828125 8.828125-35.3125 8.828125c-15.980469-.425781-30.488281-9.433594-37.957031-23.570312-.441406-6.53125-.617188-14.300782-.441406-24.1875 23.589844 8.667968 48.582031 12.890624 73.710937 12.449218 25.125.441406 50.117188-3.78125 73.710938-12.449218.175781 9.886718 0 17.65625-.441407 24.1875zm0 0" fill="#7f5b53"/><path d="m152.539062 122.3125c-28.152343 7.933594-46.609374 21.355469-46.609374 36.585938 0 24.375 47.429687 44.136718 105.933593 44.136718 58.503907 0 105.929688-19.761718 105.929688-44.136718 0-15.230469-18.457031-28.652344-46.605469-36.585938zm0 0" fill="#7f6e5d"/><path d="m211.863281 167.722656c21.804688-.261718 43.140625-6.355468 61.792969-17.652344-.160156-22.464843-4.730469-44.679687-13.453125-65.382812-1.070313-2.382812-3.136719-4.171875-5.648437-4.890625-2.511719-.722656-5.210938-.296875-7.382813 1.15625-7.617187 5.097656-19.355469 16.148437-35.308594 16.148437-15.957031 0-27.695312-11.050781-35.3125-16.148437-2.167969-1.453125-4.871093-1.878906-7.378906-1.15625-2.511719.71875-4.578125 2.507813-5.648437 4.890625-8.722657 20.703125-13.292969 42.917969-13.453126 65.382812 18.652344 11.296876 39.988282 17.390626 61.792969 17.652344zm0 0" fill="#cbb292"/></svg>